<?xml version="1.0" encoding="utf-8"?>
<!-- Generator: Adobe Illustrator 26.3.1, SVG Export Plug-In . SVG Version: 6.00 Build 0)  -->
<svg version="1.1" id="Layer_1" xmlns="http://www.w3.org/2000/svg" xmlns:xlink="http://www.w3.org/1999/xlink" x="0px" y="0px"
	 viewBox="0 0 1920 1080" style="enable-background:new 0 0 1920 1080;" xml:space="preserve">
<style type="text/css">
	.st0{fill:#F3F4E9;stroke:#E1EABE;stroke-miterlimit:10;}
	.st1{fill:#E1EABE;stroke:#E1EABE;stroke-miterlimit:10;}
	.st2{fill:none;stroke:#E1EABE;stroke-width:6;stroke-miterlimit:10;}
	.st3{fill:none;stroke:#E1EABE;stroke-width:2;stroke-miterlimit:10;}
	.st4{fill:#E1EABE;stroke:#E1EABE;stroke-width:2;stroke-miterlimit:10;}
	.st5{fill:#F3F4E9;}
	.st6{fill:#D9E021;}
	.st7{fill:#688442;}
	.st8{fill:#FFFFFF;}
</style>
<g>
	<ellipse class="st0" cx="939.1" cy="907.3" rx="80.3" ry="82.1"/>
	<circle class="st1" cx="939.1" cy="912" r="8.3"/>
	<line class="st2" x1="888.5" y1="846.6" x2="939.1" y2="915.6"/>
	<line class="st3" x1="931" y1="920.3" x2="999.8" y2="853.6"/>
	<line class="st3" x1="940.6" y1="912" x2="990.2" y2="969.2"/>
	<line class="st3" x1="883.5" y1="969.5" x2="935.6" y2="911.5"/>
	<line class="st3" x1="932.9" y1="989.4" x2="939.1" y2="913.8"/>
	<line class="st3" x1="858.8" y1="907.3" x2="935.6" y2="911.5"/>
	<line class="st3" x1="939.1" y1="913.5" x2="1015.9" y2="917.7"/>
	<ellipse class="st0" cx="698.9" cy="907.3" rx="80.3" ry="82.1"/>
	<polygon class="st1" points="726.4,825.2 741.9,780 734.2,780 718.7,775.3 723.3,761 718.7,752.1 725.7,744.3 730.3,754.4 
		730.3,768.1 741.9,772.7 753.6,775.3 748.9,789.5 860.6,810.9 872.3,775.3 872.3,767 849,763.6 849,756.7 886.2,753.9 904.9,749.1 
		911.8,751.5 911.8,765.8 897.9,772.9 881.6,768.1 870,803.8 876.9,806.2 870,815.7 886.3,838 879.1,843.3 867.6,825.2 839.7,915.6 
		858.3,818.1 751.3,799.1 744.3,810.9 828.1,907.3 831.4,915.6 825.7,920.4 741.9,818.1 736.5,832.4 	"/>
	<polygon class="st1" points="834.6,920.4 887.4,921.6 889.7,923.9 889.7,931.4 871.1,923.9 871.1,931.4 834.6,929.7 	"/>
	<polygon class="st1" points="834.6,913.8 858.3,818.1 867.6,825.2 839.7,915.6 	"/>
	<polygon class="st1" points="834.6,929.7 834.6,920.4 839.7,915.6 834.6,913.8 827.5,920.4 	"/>
	<polygon class="st4" points="929.3,907.3 883.6,840 886.3,838 930.5,903.7 	"/>
	<polygon class="st1" points="834.6,920.4 929.3,907.3 930.5,911.3 855.6,921.8 	"/>
	<path class="st1" d="M718.7,851.4c-4.5,7.7-7.5,14.4-9.3,19c-4.6,11.5-5.5,18.6-11.6,28.5c-2.6,4.3-5.2,7.5-7,9.5l8.2,5.4l12.8-22
		l24.8-59.5l-10-7.1L718.7,851.4z"/>
	<g>
		<g>
			<g>
				<path class="st1" d="M231.6,467.2l30.2-52.9l24.7,14.8l-18.7-115.3l-102.5,41.7l20,15.8c0,0-18.2,31-14.2,53
					C180.9,439.1,199,457.1,231.6,467.2z"/>
				<path class="st1" d="M180.8,451.4c0,0,0.7,1.5,2,4.1c-0.8-1.7-1.6-3.4-2.3-5C180.8,451.4,180.8,451.4,180.8,451.4z"/>
				<path class="st1" d="M188.5,467.2c-2.4-4.9-4.4-8.9-5.7-11.7C184.5,459.3,186.5,463.2,188.5,467.2z"/>
				<path class="st5" d="M342.7,570.1l-5.7-98.3c-6.9,1-13.5,1.8-19.8,2.3c-36.1,3.2-64-0.2-85.6-6.9
					c-32.6-10.2-50.7-28.1-60.5-42.9c0.3,1.7,0.8,3.4,1.4,5c5.4,14.3,7.3,19.3,8,21.1c0.8,1.7,1.5,3.3,2.3,5
					c1.3,2.8,3.3,6.8,5.7,11.7c18.7,36.9,45.5,79.3,55.1,94.1c1.7,2.7,4.3,4.8,7.5,6.6c21.6,11.8,72.3,5.2,88.4,2.8
					c2.1-0.1,3.3-0.2,3.3-0.2L342.7,570.1z"/>
			</g>
			<g>
				<path class="st1" d="M396.9,201.2l30,53l-24.1,15.8l105.5,37.4L522,193l-22.7,11c0,0-17.3-31.5-37.7-38.3
					C444.5,167.7,420.9,175.9,396.9,201.2z"/>
				<path class="st1" d="M434.3,161.8c0,0-1.6,0-4.4-0.1c1.8,0.1,3.6,0.1,5.3,0.2C434.3,161.8,434.3,161.8,434.3,161.8z"/>
				<path class="st1" d="M417.5,161.4c5.3,0.1,9.6,0.2,12.5,0.3C425.9,161.5,421.7,161.4,417.5,161.4z"/>
				<path class="st0" d="M456.8,164.5c-14.6-1.8-19.7-2.4-21.5-2.6c-1.7-0.1-3.5-0.2-5.3-0.2c-2.9-0.1-7.2-0.2-12.5-0.3
					c-39.8-0.2-88.1,4.4-105.1,6.3c-3,0.3-6.1,1.7-9.1,3.8c-20.2,14.4-38.7,64.3-44.2,80.3c-0.9,2-1.4,3.1-1.4,3.1l0.3,0.1
					l85.1,41.4c2.4-6.8,4.9-13.3,7.5-19.4c14.5-34.9,30.5-59.1,46.4-75.8c24-25.3,47.6-33.5,64.6-35.6
					C460,165.1,458.4,164.7,456.8,164.5z"/>
			</g>
			<g>
				<path class="st1" d="M531.1,470.5l-58.7-2.4l0.5-29.9l-87.3,72.7l84.1,74.3l3.6-26c0,0,34.6,1.9,51.1-12.4
					C532,530.7,538.3,505.4,531.1,470.5z"/>
				<path class="st1" d="M563.9,318.6l-0.3,0.2c0.5,0.7,1.2,1.6,2,2.8C564.5,319.6,563.9,318.6,563.9,318.6z"/>
				<path class="st1" d="M542.3,524.9c0,0,0.9-1.3,2.5-3.8c-1,1.6-2.1,3.1-3.1,4.6C542.3,524.9,542.3,524.9,542.3,524.9z"/>
				<path class="st1" d="M551.8,510.3c-2.9,4.6-5.4,8.3-7,10.9C547.1,517.7,549.4,514,551.8,510.3z"/>
				<path class="st1" d="M495.7,388.4c20,31.7,30.6,59,35.4,82.1l2,0.1C526.1,438.7,507.9,407.1,495.7,388.4z"/>
				<path class="st5" d="M565.6,321.5c-0.8-1.1-1.5-2.1-2-2.8l-79.3,52.5c4.1,5.8,7.9,11.6,11.5,17.1c12.2,18.7,30.4,50.3,37.4,82.2
					l-2-0.1c7.2,34.9,0.9,60.2-6.7,76.3c1.3-1.1,2.5-2.3,3.5-3.6c9.3-11.9,12.6-16,13.8-17.5c1-1.5,2.1-3,3.1-4.6
					c1.7-2.5,4.1-6.3,7-10.9c21.9-35,44.3-80,52.1-96c1.4-2.9,2-6.3,1.9-10.1C605.3,378.6,575.4,335.1,565.6,321.5z"/>
			</g>
		</g>
	</g>
	<circle class="st1" cx="938.8" cy="912" r="8.3"/>
	<circle class="st1" cx="698.9" cy="912" r="8.3"/>
	<line class="st3" x1="648.3" y1="846.6" x2="698.9" y2="915.6"/>
	<line class="st3" x1="690.7" y1="920.4" x2="759.6" y2="853.6"/>
	<line class="st3" x1="700.4" y1="912" x2="749.9" y2="969.2"/>
	<line class="st3" x1="643.3" y1="969.5" x2="695.4" y2="911.5"/>
	<line class="st3" x1="692.6" y1="989.4" x2="698.9" y2="913.8"/>
	<line class="st3" x1="618.6" y1="907.3" x2="695.4" y2="911.5"/>
	<line class="st3" x1="698.9" y1="913.5" x2="775.7" y2="917.7"/>
	<line class="st3" x1="698" y1="907.3" x2="707.2" y2="825.2"/>
	<line class="st3" x1="943.1" y1="908.6" x2="939.1" y2="825.2"/>
	<g>
		<g>
			<g>
				
					<ellipse transform="matrix(0.7071 -0.7071 0.7071 0.7071 128.0894 1356.5127)" class="st1" cx="1701.5" cy="523.6" rx="52.3" ry="52.3"/>
				
					<ellipse transform="matrix(0.7071 -0.7071 0.7071 0.7071 -2.9073 1040.2585)" class="st1" cx="1254.2" cy="523.6" rx="52.3" ry="52.3"/>
			</g>
			
				<rect x="1330.6" y="421.9" transform="matrix(-1 -4.490509e-11 4.490509e-11 -1 2815.3748 941.9825)" class="st1" width="154.2" height="98.3"/>
			<polygon class="st0" points="1401.6,520.1 1824.9,520.1 1824.9,287 1706.6,217.6 1401.6,217.6 			"/>
			<path class="st1" d="M1152.4,474.7c1.5-8.1-4.2-16.1-11.5-20.1c-2.5-1.3-5.1-2.3-7.8-3c2.8-50.7,9-115.8,22.6-145
				c36.7-84.5,224.3-80.1,224.3-80.1v293.6h-249.2c0,0,0.1-9.8,0.5-25.4c5.5-1.9,10.6-5,14.7-9.1
				C1149.1,482.6,1151.6,478.9,1152.4,474.7z"/>
			<path class="st6" d="M1140.9,454.7c7.2,3.9,12.9,12,11.5,20.1c-0.8,4.2-3.3,7.8-6.3,10.9c-4.1,4.1-9.2,7.2-14.7,9.1
				c0.3-11.7,0.9-26.6,1.8-43C1135.8,452.4,1138.5,453.4,1140.9,454.7z"/>
			<g>
				<g>
					<path class="st7" d="M1525.3,343.2l0.1,0.1c-0.3,0.3-0.6,0.8-1,1.3C1525,343.6,1525.3,343.2,1525.3,343.2z"/>
					<path class="st7" d="M1536,440c0,0-0.4-0.6-1.2-1.8c0.5,0.7,1,1.4,1.5,2.1C1536,440,1536,440,1536,440z"/>
				</g>
			</g>
			<g>
				<path class="st8" d="M1341.5,270.2v111.4h-50.3V272.1C1318.9,269.9,1341.5,270.2,1341.5,270.2z"/>
				<path class="st8" d="M1179.1,381.5c0,0,0-3.7,0.3-9.6c0.2-4.4,0.6-10.1,1.2-16.3c1.8-19.2,5.8-43.9,14.7-55
					c12.3-16.5,50.7-24.1,85-27.5v108.5H1179.1z"/>
			</g>
		</g>
	</g>
	<g>
		<g>
			<g>
				<path class="st1" d="M1547.2,404l11.3-19.8l9.3,5.5l-7-43.1l-38.4,15.6l7.5,5.9c0,0-6.8,11.6-5.3,19.9
					C1528.2,393.5,1535,400.2,1547.2,404z"/>
				<path class="st1" d="M1528.2,398.1c0,0,0.3,0.6,0.7,1.5c-0.3-0.6-0.6-1.3-0.9-1.9C1528.2,398.1,1528.2,398.1,1528.2,398.1z"/>
				<path class="st1" d="M1531,404c-0.9-1.8-1.6-3.3-2.1-4.4C1529.6,401,1530.3,402.5,1531,404z"/>
				<path class="st5" d="M1588.8,442.5l-2.1-36.8c-2.6,0.4-5,0.7-7.4,0.9c-13.5,1.2-24-0.1-32-2.6c-12.2-3.8-19-10.5-22.6-16
					c0.1,0.6,0.3,1.3,0.5,1.9c2,5.4,2.7,7.2,3,7.9c0.3,0.6,0.6,1.3,0.9,1.9c0.5,1,1.2,2.5,2.1,4.4c7,13.8,17,29.7,20.6,35.2
					c0.6,1,1.6,1.8,2.8,2.5c8.1,4.4,27.1,2,33.1,1c0.8,0,1.2-0.1,1.2-0.1L1588.8,442.5z"/>
			</g>
			<g>
				<path class="st1" d="M1609.1,304.4l11.2,19.9l-9,5.9l39.5,14l5.1-42.9l-8.5,4.1c0,0-6.5-11.8-14.1-14.3
					C1626.9,291.9,1618.1,295,1609.1,304.4z"/>
				<path class="st1" d="M1623.1,289.7c0,0-0.6,0-1.6,0c0.7,0,1.3,0.1,2,0.1C1623.1,289.7,1623.1,289.7,1623.1,289.7z"/>
				<path class="st1" d="M1616.8,289.5c2,0,3.6,0.1,4.7,0.1C1619.9,289.6,1618.4,289.5,1616.8,289.5z"/>
				<path class="st0" d="M1631.5,290.7c-5.5-0.7-7.4-0.9-8-1c-0.7,0-1.3-0.1-2-0.1c-1.1,0-2.7-0.1-4.7-0.1
					c-14.9-0.1-33,1.7-39.3,2.3c-1.1,0.1-2.3,0.6-3.4,1.4c-7.6,5.4-14.5,24.1-16.6,30.1c-0.3,0.8-0.5,1.2-0.5,1.2l0.1,0.1l31.9,15.5
					c0.9-2.6,1.8-5,2.8-7.3c5.4-13.1,11.4-22.1,17.4-28.4c9-9.5,17.8-12.5,24.2-13.3C1632.7,290.9,1632.1,290.8,1631.5,290.7z"/>
			</g>
			<g>
				<path class="st1" d="M1659.3,405.2l-22-0.9l0.2-11.2l-32.7,27.2l31.5,27.8l1.3-9.7c0,0,13,0.7,19.1-4.7
					C1659.7,427.8,1662,418.3,1659.3,405.2z"/>
				<path class="st1" d="M1671.6,348.4L1671.6,348.4c0.1,0.3,0.3,0.7,0.7,1.1C1671.8,348.8,1671.6,348.4,1671.6,348.4z"/>
				<path class="st1" d="M1663.5,425.6c0,0,0.3-0.5,0.9-1.4c-0.4,0.6-0.8,1.2-1.2,1.7C1663.5,425.6,1663.5,425.6,1663.5,425.6z"/>
				<path class="st1" d="M1667.1,420.1c-1.1,1.7-2,3.1-2.6,4.1C1665.3,422.9,1666.2,421.5,1667.1,420.1z"/>
				<path class="st1" d="M1646.1,374.5c7.5,11.9,11.5,22.1,13.2,30.7l0.8,0C1657.4,393.3,1650.6,381.5,1646.1,374.5z"/>
				<path class="st5" d="M1672.2,349.5c-0.3-0.4-0.6-0.8-0.8-1l-29.7,19.7c1.5,2.2,3,4.3,4.3,6.4c4.6,7,11.4,18.8,14,30.8l-0.8,0
					c2.7,13.1,0.3,22.5-2.5,28.6c0.5-0.4,0.9-0.9,1.3-1.4c3.5-4.4,4.7-6,5.2-6.5c0.4-0.6,0.8-1.1,1.2-1.7c0.6-1,1.5-2.4,2.6-4.1
					c8.2-13.1,16.6-30,19.5-35.9c0.5-1.1,0.7-2.3,0.7-3.8C1687.1,370.8,1675.9,354.5,1672.2,349.5z"/>
			</g>
		</g>
	</g>
</g>
<g>
	<g>
		<g>
			<path class="st1" d="M1524,406.1l12-21l9.8,5.9l-7.4-45.8l-40.7,16.5l7.9,6.3c0,0-7.2,12.3-5.6,21
				C1503.9,395,1511,402.1,1524,406.1z"/>
			<path class="st1" d="M1503.8,399.8c0,0,0.3,0.6,0.8,1.6c-0.3-0.7-0.6-1.3-0.9-2C1503.8,399.8,1503.8,399.8,1503.8,399.8z"/>
			<path class="st1" d="M1506.8,406.1c-1-1.9-1.7-3.5-2.3-4.6C1505.3,403,1506.1,404.5,1506.8,406.1z"/>
			<path class="st5" d="M1568.1,447l-2.3-39c-2.7,0.4-5.4,0.7-7.9,0.9c-14.3,1.3-25.4-0.1-34-2.7c-12.9-4-20.1-11.2-24-17
				c0.1,0.7,0.3,1.3,0.5,2c2.2,5.7,2.9,7.7,3.2,8.4c0.3,0.7,0.6,1.3,0.9,2c0.5,1.1,1.3,2.7,2.3,4.6c7.4,14.7,18.1,31.5,21.9,37.4
				c0.7,1.1,1.7,1.9,3,2.6c8.6,4.7,28.7,2.1,35.1,1.1c0.8,0,1.3-0.1,1.3-0.1L1568.1,447z"/>
		</g>
		<g>
			<path class="st1" d="M1589.6,300.5l11.9,21.1l-9.6,6.3l41.9,14.8l5.4-45.4l-9,4.3c0,0-6.9-12.5-15-15.2
				C1608.5,287.2,1599.1,290.5,1589.6,300.5z"/>
			<path class="st1" d="M1604.4,284.9c0,0-0.6,0-1.7-0.1c0.7,0,1.4,0.1,2.1,0.1C1604.4,284.9,1604.4,284.9,1604.4,284.9z"/>
			<path class="st1" d="M1597.7,284.7c2.1,0,3.8,0.1,5,0.1C1601.1,284.8,1599.4,284.7,1597.7,284.7z"/>
			<path class="st0" d="M1613.3,286c-5.8-0.7-7.8-1-8.5-1c-0.7,0-1.4-0.1-2.1-0.1c-1.2,0-2.9-0.1-5-0.1c-15.8-0.1-35,1.8-41.7,2.5
				c-1.2,0.1-2.4,0.7-3.6,1.5c-8,5.7-15.4,25.5-17.6,31.9c-0.4,0.8-0.6,1.2-0.6,1.2l0.1,0.1l33.8,16.4c1-2.7,2-5.3,3-7.7
				c5.7-13.8,12.1-23.5,18.4-30.1c9.5-10,18.9-13.3,25.7-14.1C1614.6,286.2,1614,286.1,1613.3,286z"/>
		</g>
		<g>
			<path class="st1" d="M1642.9,407.4l-23.3-1l0.2-11.9l-34.6,28.8l33.4,29.5l1.4-10.3c0,0,13.7,0.8,20.3-4.9
				C1643.2,431.3,1645.7,421.3,1642.9,407.4z"/>
			<path class="st1" d="M1655.9,347.1l-0.1,0.1c0.2,0.3,0.5,0.6,0.8,1.1C1656.1,347.5,1655.9,347.1,1655.9,347.1z"/>
			<path class="st1" d="M1647.3,429c0,0,0.4-0.5,1-1.5c-0.4,0.6-0.8,1.2-1.2,1.8C1647.3,429,1647.3,429,1647.3,429z"/>
			<path class="st1" d="M1651.1,423.2c-1.2,1.8-2.1,3.3-2.8,4.3C1649.2,426.1,1650.1,424.7,1651.1,423.2z"/>
			<path class="st1" d="M1628.8,374.8c7.9,12.6,12.2,23.4,14,32.6l0.8,0C1640.9,394.8,1633.7,382.2,1628.8,374.8z"/>
			<path class="st5" d="M1656.6,348.3c-0.3-0.5-0.6-0.8-0.8-1.1l-31.5,20.8c1.6,2.3,3.2,4.6,4.6,6.8c4.8,7.4,12.1,20,14.8,32.6
				l-0.8,0c2.8,13.9,0.4,23.9-2.7,30.3c0.5-0.4,1-0.9,1.4-1.4c3.7-4.7,5-6.4,5.5-6.9c0.4-0.6,0.8-1.2,1.2-1.8c0.7-1,1.6-2.5,2.8-4.3
				c8.7-13.9,17.6-31.8,20.7-38.1c0.6-1.1,0.8-2.5,0.8-4C1672.3,370.9,1660.4,353.7,1656.6,348.3z"/>
		</g>
	</g>
</g>
<path class="st0" d="M1810.3,361.7c0,10.6-27.2,60.4-17.7,78.1s-2.4,84-29.6,28.4c-27.2-55.6-23.7-85.2-55.6-85.2
	s-5.9-35.5-52.1-22.5s-84,1.2-89.9-9.5s-43.8-9.5-21.3,8.3c22.5,17.7,33.2,41.1,54.5,25.3s15,4.7,26.8,4s25.2,22.9,0,36.3
	c-25.2,13.4,0,16.6-40.2,37.1s-70.2,46.5-79.7,11c-9.5-35.5-71.8-110.4-79.7-110.4c-7.9,0-12.6,8.7,6.3,33.9
	c18.9,25.2,45,93.9,63.1,93.9c18.1,0,11.8,23.7,27.6,25.2c15.8,1.6,50.4-18.8,59.9-14.2c9.6,4.5-4.7,64.7-54.4,85.2
	c-49.7,20.5-63.1,74.2-52.9,82.8c10.2,8.7,15,47.3,7.1,58.4c-7.9,11-58.4,8.7-50.5,33.1c7.9,24.4-4,32.3-19.7,26
	c-15.8-6.3,26,16.6-26.8,37.1c-52.8,20.5-104.9-26-109.7-52.1c-4.7-26-53.6-67-41.8-78.1c11.8-11-3.2-69.4-9.5-71.8
	c-6.3-2.4-28.4-46.5-17.4-52.9c11-6.3-6.3-29.2-25.2-22.9c-18.9,6.3,9.5-34.7-30.8-23.7c-40.2,11-44.2-9.5-67-21.3
	c-22.9-11.8-26.8-89.9-0.8-124.6c26-34.7,60.7-84.4,86-85.2c25.2-0.8,94.7-33.9,82,18.1c-12.6,52.1,7.1-5.5,33.1,19.7
	c26,25.2,26.8,20.5,30,1.6c3.2-18.9,56.8,26,72.6,7.9c15.8-18.1,37.1,21.3,44.2-9.5c7.1-30.8,11-36.3-13.4-37.1
	c-24.4-0.8-59.9,7.1-51.3-11c8.7-18.1-6.3-41.8-25.2-7.9s-7.1-28.4-23.7-37.8c-16.6-9.5-26.8-33.9-30-7.9
	c-3.2,26,32.3,22.1,24.4,29.2c-7.9,7.1-13.4,34.7-25.2,4.7c-11.8-30-19.7-46.5-36.3-34.7c-16.6,11.8-46.5,18.9-50.5,33.1
	c-4,14.2-33.1,33.9-41.8,11c-8.7-22.9,11.8-15.8,28.4-48.9c16.6-33.1,18.1,26,34.7-4.7c16.6-30.8-9.5-26.8,5.5-31.5
	s22.1-16.6,10.3-21.3c-11.8-4.7,3.2-25.2,21.3-24.4c18.1,0.8,7.1-28.4,27.6-17.4c20.5,11-45,29.2-15.8,44.2
	c29.2,15,21.3-25.2,41-27.6c19.7-2.4,18.1-7.1,7.1-20.5c-10.9-13.5,90-60.1,100.3-54.5c10.3,5.5,53.6,18.1,86,7.1
	c16.3-5.6,17.7-7.1,15.5-9.3c-43.8-7.9-85.4-8.7-119.8-2.8c0,0-307.1,14.4-364.6,331c-57.6,316.7,230.3,520.6,434.2,499
	c203.9-21.6,369.4-167.9,381.4-455.8c0.6-12.8,0.4-25.2-0.2-37.3c-0.7-3-1.3-6.6-1.8-11C1844.6,341.5,1810.3,351,1810.3,361.7z"/>
<path class="st1" d="M1555.2,701.4c0,0-27-11.7-28.8,12.6c-1.8,24.3-28.8-13.5-28.8,13.5s3.6,35.1-9.9,45.9
	c-13.5,10.8,17.1,26.1,31.5,2.7C1533.6,752.7,1563.3,724.8,1555.2,701.4z"/>
<path class="st1" d="M1520.2,62.2c2.2,2.2,0.8,3.7-15.5,9.3c-32.3,11-75.7-1.6-86-7.1c-10.3-5.5-111.2,41-100.2,54.4
	c11,13.4,12.6,18.1-7.1,20.5c-19.7,2.4-11.8,42.6-41,27.6c-29.2-15,36.3-33.1,15.8-44.2c-20.5-11.1-9.5,18.1-27.6,17.4
	c-18.1-0.8-33.1,19.7-21.3,24.4c11.8,4.7,4.7,16.6-10.3,21.3c-15,4.7,11,0.8-5.5,31.5c-16.6,30.8-18.1-28.4-34.7,4.7
	s-37.1,26-28.4,48.9c8.7,22.9,37.8,3.2,41.8-11c4-14.2,33.9-21.3,50.5-33.1c16.6-11.8,24.4,4.7,36.3,34.7s17.4,2.4,25.2-4.7
	c7.9-7.1-27.6-3.2-24.4-29.2c3.2-26,13.4-1.6,30,7.9c16.6,9.5,4.7,71.8,23.7,37.8s33.9-10.3,25.2,7.9c-8.7,18.1,26.8,10.3,51.3,11
	c24.4,0.8,20.5,6.3,13.4,37.1c-7.1,30.8-28.4-8.7-44.2,9.5c-15.8,18.1-69.4-26.8-72.6-7.9c-3.2,18.9-4,23.7-30-1.6
	c-26-25.2-45.8,32.3-33.1-19.7c12.6-52.1-56.8-18.9-82-18.1c-25.2,0.8-59.9,50.5-86,85.2c-26,34.7-22.1,112.8,0.8,124.6
	c22.9,11.8,26.8,32.3,67,21.3c40.2-11,11.8,30,30.8,23.7c18.9-6.3,36.3,16.6,25.2,22.9s11,50.5,17.4,52.9
	c6.3,2.4,21.3,60.7,9.5,71.8c-11.8,11,37.1,52.1,41.8,78.1c4.7,26,56.8,72.6,109.7,52.1c52.9-20.5,11-43.4,26.8-37.1
	s27.6-1.6,19.7-26c-7.9-24.4,42.6-22.1,50.5-33.1c7.9-11,3.2-49.7-7.1-58.4c-10.3-8.7,3.2-62.3,52.9-82.8
	c49.7-20.5,64-80.6,54.4-85.2s-44.2,15.8-59.9,14.2c-15.8-1.6-9.5-25.2-27.6-25.2s-44.2-68.6-63.1-93.9
	c-18.9-25.2-14.2-33.9-6.3-33.9c7.9,0,70.2,74.9,79.7,110.4c9.5,35.5,39.5,9.5,79.7-11c40.2-20.5,15-23.7,40.2-37.1
	c25.2-13.4,11.8-37.1,0-36.3c-11.8,0.8-5.5-19.7-26.8-4c-21.3,15.8-32-7.6-54.5-25.3c-22.5-17.8,15.4-18.9,21.3-8.3
	s43.8,22.5,89.9,9.5c46.1-13,20.1,22.5,52.1,22.5c32,0,28.4,29.6,55.6,85.2c27.2,55.6,39-10.6,29.6-28.4
	c-9.5-17.7,17.7-67.4,17.7-78.1s34.3-20.1,39,23.7c0.5,4.4,1.1,8,1.8,11C1839.8,195.6,1667.5,88.8,1520.2,62.2z"/>
</svg>
