<?xml version="1.0" encoding="utf-8"?>
<!-- Generator: Adobe Illustrator 26.3.1, SVG Export Plug-In . SVG Version: 6.00 Build 0)  -->
<svg version="1.1" id="Layer_1" xmlns="http://www.w3.org/2000/svg" xmlns:xlink="http://www.w3.org/1999/xlink" x="0px" y="0px"
	 viewBox="0 0 1920 1080" style="enable-background:new 0 0 1920 1080;" xml:space="preserve">
<style type="text/css">
	.st0{fill:#F3F4E9;stroke:#E1EABE;stroke-miterlimit:10;}
	.st1{fill:#E1EABE;stroke:#E1EABE;stroke-miterlimit:10;}
	.st2{fill:#FFFFFF;stroke:#E1EABE;stroke-miterlimit:10;}
	.st3{fill:#F3F4E9;}
</style>
<g>
	<path class="st0" d="M1811.46,291.89c0,8.1-20.69,45.92-13.5,59.42c7.19,13.5-1.81,63.92-22.51,21.6
		c-20.69-42.32-18-64.8-42.32-64.8c-24.32,0-4.5-27.01-39.6-17.1c-35.1,9.91-63.92,0.91-68.42-7.19c-4.5-8.1-33.32-7.19-16.19,6.31
		c17.1,13.5,25.26,31.28,41.45,19.27s11.4,3.59,20.4,3.01c9-0.58,19.2,17.39,0,27.59c-19.2,10.2,0,12.6-30.6,28.21
		c-30.6,15.61-53.4,35.39-60.62,8.39c-7.19-27.01-54.6-84-60.62-84c-5.99,0-9.59,6.61,4.79,25.81s34.2,71.4,47.99,71.4
		c13.79,0,9,18,21.02,19.2c12.01,1.2,38.31-14.28,45.59-10.82s-3.59,49.19-41.42,64.8c-37.79,15.61-47.99,56.41-40.22,63.02
		c7.77,6.61,11.4,36.01,5.41,44.4c-5.99,8.39-44.4,6.61-38.41,25.19c5.99,18.59-3.01,24.61-14.99,19.79
		c-12.01-4.79,19.79,12.6-20.4,28.21s-79.82-19.79-83.42-39.6c-3.59-19.79-40.8-51-31.8-59.39s-2.4-52.82-7.19-54.6
		c-4.79-1.81-21.6-35.39-13.21-40.22c8.39-4.79-4.79-22.21-19.2-17.39c-14.41,4.82,7.19-26.39-23.41-18
		c-30.6,8.39-33.61-7.19-51-16.19c-17.39-9-20.4-68.39-0.62-94.82c19.79-26.39,46.21-64.21,65.41-64.8
		c19.2-0.62,72.02-25.81,62.4,13.79c-9.59,39.6,5.41-4.21,25.19,14.99c19.79,19.2,20.4,15.61,22.8,1.2
		c2.4-14.41,43.2,19.79,55.21,5.99c12.01-13.79,28.21,16.19,33.61-7.19c5.41-23.41,8.39-27.59-10.2-28.21
		c-18.59-0.62-45.59,5.41-38.99-8.39c6.61-13.79-4.79-31.8-19.2-5.99s-5.41-21.6-18-28.79c-12.6-7.19-20.4-25.81-22.8-5.99
		c-2.4,19.79,24.61,16.81,18.59,22.21c-5.99,5.41-10.2,26.39-19.2,3.59s-14.99-35.39-27.59-26.39c-12.6,9-35.39,14.41-38.41,25.19
		c-3.01,10.82-25.19,25.81-31.8,8.39c-6.61-17.39,9-12.01,21.6-37.21c12.6-25.19,13.79,19.79,26.39-3.59
		c12.6-23.41-7.19-20.4,4.21-24s16.81-12.6,7.8-16.19c-9-3.59,2.4-19.2,16.19-18.59s5.41-21.6,21.02-13.21
		c15.61,8.39-34.2,22.21-12.01,33.61c22.21,11.4,16.19-19.2,31.22-21.02c14.99-1.81,13.79-5.41,5.41-15.61
		c-8.32-10.27,68.49-45.69,76.29-41.48c7.8,4.21,40.8,13.79,65.41,5.41c12.37-4.24,13.44-5.41,11.79-7.06
		c-33.32-6.02-64.96-6.64-91.16-2.1c0,0-233.61,10.95-277.39,251.84c-43.81,240.89,175.19,396.04,330.33,379.62
		c155.11-16.42,281.05-127.75,290.18-346.75c0.42-9.71,0.32-19.2-0.19-28.4c-0.52-2.27-0.97-5.02-1.36-8.35
		C1837.56,276.57,1811.46,283.79,1811.46,291.89z"/>
	<path class="st1" d="M1617.39,550.36c0,0-20.53-8.91-21.89,9.59s-21.89-10.27-21.89,10.27s2.75,26.68-7.51,34.91
		c-10.27,8.23,13.02,19.85,23.96,2.04C1600.94,589.38,1623.54,568.17,1617.39,550.36z"/>
	<path class="st1" d="M1590.77,64.08c1.65,1.65,0.58,2.85-11.79,7.06c-24.61,8.39-57.61-1.2-65.41-5.41
		c-7.8-4.21-84.62,31.22-76.2,41.42c8.39,10.2,9.59,13.79-5.41,15.61c-14.99,1.81-9,32.41-31.22,21.02
		c-22.21-11.4,27.59-25.19,12.01-33.61s-7.19,13.79-21.02,13.21c-13.79-0.62-25.19,14.99-16.19,18.59s3.59,12.6-7.8,16.19
		c-11.4,3.59,8.39,0.62-4.21,24c-12.6,23.41-13.79-21.6-26.39,3.59c-12.6,25.19-28.2,19.79-21.6,37.21
		c6.61,17.39,28.79,2.4,31.8-8.39c3.01-10.82,25.81-16.19,38.41-25.19c12.6-9,18.59,3.59,27.59,26.39s13.21,1.81,19.2-3.59
		c5.99-5.41-21.02-2.4-18.59-22.21c2.4-19.79,10.2-1.2,22.8,5.99c12.6,7.19,3.59,54.6,18,28.79c14.41-25.81,25.81-7.8,19.2,5.99
		c-6.61,13.79,20.4,7.8,38.99,8.39c18.59,0.62,15.61,4.79,10.2,28.21c-5.41,23.41-21.6-6.61-33.61,7.19
		c-12.01,13.79-52.82-20.4-55.21-5.99c-2.4,14.41-3.01,18-22.8-1.2s-34.81,24.61-25.19-14.99c9.59-39.6-43.2-14.41-62.4-13.79
		s-45.59,38.41-65.41,64.8c-19.79,26.39-16.81,85.81,0.62,94.82c17.39,9,20.4,24.61,51,16.19c30.6-8.39,9,22.8,23.41,18
		s27.59,12.6,19.2,17.39c-8.39,4.79,8.39,38.41,13.21,40.22c4.79,1.81,16.19,46.21,7.19,54.6s28.21,39.6,31.8,59.39
		c3.59,19.79,43.2,55.21,83.42,39.6c40.22-15.61,8.39-33,20.4-28.21c12.01,4.79,21.02-1.2,14.99-19.79
		c-5.99-18.59,32.41-16.81,38.41-25.19s2.4-37.79-5.41-44.4c-7.8-6.61,2.4-47.41,40.22-63.02c37.79-15.61,48.7-61.33,41.42-64.8
		s-33.61,12.01-45.59,10.82c-12.01-1.2-7.19-19.2-21.02-19.2s-33.61-52.2-47.99-71.4c-14.38-19.2-10.82-25.81-4.79-25.81
		c5.99,0,53.4,56.99,60.62,84c7.19,27.01,30.02,7.19,60.62-8.39c30.6-15.61,11.4-18,30.6-28.21c19.2-10.2,9-28.21,0-27.59
		c-9,0.62-4.21-14.99-20.4-3.01c-16.19,12.01-24.35-5.76-41.45-19.27s11.69-14.41,16.19-6.31c4.5,8.1,33.32,17.1,68.42,7.19
		c35.1-9.91,15.32,17.1,39.6,17.1c24.32,0,21.6,22.51,42.32,64.8c20.69,42.32,29.69-8.1,22.51-21.6
		c-7.19-13.5,13.5-51.29,13.5-59.42c0-8.13,26.1-15.32,29.69,18c0.36,3.34,0.81,6.09,1.36,8.35
		C1833.93,165.6,1702.81,84.28,1590.77,64.08z"/>
	<path class="st2" d="M1507.45,187.45c0,0-17.78-17.78-20.53-8.23c-2.75,9.59-7.77,18.72-13.24,20.08
		c-5.47,1.36,0.45,20.08,15.96,11.4c15.51-8.68,36.95-5.02,40.61-1.36c3.66,3.66,3.66,3.66,3.66,3.66s19.62-4.11,10.95-15.96
		c-8.68-11.85-21.89-3.66-20.08-16.42c1.81-12.76-5.47-9.13-9.13-5.47C1512.02,178.78,1505.18,169.64,1507.45,187.45z"/>
	<path class="st2" d="M1582.29,171.94c0,0-14.15,9.59-9.59,16.87s16.42,17.32,15.06,30.57c-1.36,13.24,23.28,16.42,26.46,11.4
		c3.21-5.02-4.57-25.55-13.24-25.55s3.66-11.4-5.93-16.87S1592.78,170.1,1582.29,171.94z"/>
	<ellipse class="st0" cx="899.29" cy="828.94" rx="80.29" ry="82.06"/>
	<ellipse class="st0" cx="1129.71" cy="828.94" rx="80.29" ry="82.06"/>
	<polygon class="st1" points="926.8,746.87 942.35,701.68 934.58,701.68 919.08,696.92 923.73,682.65 919.08,673.8 926.06,666 
		930.71,676.09 930.71,689.79 942.35,694.35 953.99,696.92 949.33,711.19 1061.05,732.6 1072.68,696.92 1072.68,688.64 
		1049.41,685.22 1049.41,678.37 1086.65,675.51 1105.27,670.76 1112.25,673.14 1112.25,687.5 1098.29,694.54 1081.99,689.79 
		1070.36,725.47 1077.34,727.84 1070.36,737.36 1086.69,759.66 1079.46,764.95 1068.03,746.87 1040.1,837.26 1058.72,739.74 
		951.66,720.71 944.68,732.6 1028.46,828.94 1031.82,837.26 1026.14,842.02 942.35,739.74 936.86,754.01 	"/>
	<polygon class="st1" points="1035.03,842.02 1087.81,843.21 1090.14,845.59 1090.14,853.06 1071.52,845.59 1071.47,853.06 
		1035.03,851.34 	"/>
	<polygon class="st1" points="1035.03,835.5 1058.72,739.74 1068.03,746.87 1040.1,837.26 	"/>
	<polygon class="st1" points="1035.03,851.34 1035.03,842.02 1040.1,837.26 1035.03,835.5 1027.91,842.02 	"/>
	<polygon class="st1" points="1129.71,828.94 1084,761.63 1086.69,759.66 1130.87,825.37 	"/>
	<polygon class="st1" points="1035.03,842.02 1129.71,828.94 1130.87,832.93 1055.97,843.42 	"/>
	<path class="st1" d="M919.08,773.04c-4.54,7.74-7.47,14.38-9.31,19.03c-4.56,11.52-5.51,18.57-11.64,28.54
		c-2.63,4.28-5.22,7.49-6.98,9.51l8.15,5.38l12.8-22.03l24.76-59.47l-10.05-7.14L919.08,773.04z"/>
	<g>
		<g>
			<g>
				<path class="st1" d="M157.68,652.04l30.24-52.89l24.72,14.79l-18.73-115.26L91.43,540.36l19.96,15.79
					c0,0-18.23,30.97-14.2,53.03C107.01,623.93,125.09,641.85,157.68,652.04z"/>
				<path class="st1" d="M106.88,636.17c0,0,0.7,1.47,1.96,4.09c-0.8-1.7-1.58-3.38-2.32-5.04
					C106.88,636.17,106.88,636.17,106.88,636.17z"/>
				<path class="st1" d="M114.56,651.95c-2.43-4.9-4.38-8.93-5.71-11.68C110.63,644.07,112.55,647.98,114.56,651.95z"/>
				<path class="st3" d="M268.82,754.91l-5.7-98.27c-6.87,0.98-13.48,1.75-19.83,2.31c-36.1,3.19-64.03-0.17-85.6-6.92
					c-32.59-10.19-50.67-28.1-60.5-42.86c0.31,1.72,0.76,3.38,1.36,4.97c5.42,14.3,7.32,19.31,7.98,21.07
					c0.75,1.66,1.52,3.34,2.32,5.04c1.33,2.76,3.29,6.78,5.72,11.68c18.69,36.93,45.52,79.28,55.12,94.13
					c1.72,2.65,4.29,4.82,7.51,6.59c21.61,11.84,72.32,5.25,88.36,2.77c2.11-0.12,3.29-0.2,3.29-0.2L268.82,754.91z"/>
			</g>
			<g>
				<path class="st1" d="M323.02,385.99l30,53.04l-24.13,15.82l105.53,37.38l13.69-114.48l-22.71,10.95c0,0-17.32-31.54-37.73-38.29
					C370.63,352.5,347.03,360.71,323.02,385.99z"/>
				<path class="st1" d="M360.43,346.58c0,0-1.57-0.05-4.36-0.13c1.81,0.07,3.59,0.15,5.33,0.24
					C360.43,346.58,360.43,346.58,360.43,346.58z"/>
				<path class="st1" d="M343.56,346.19c5.26,0.09,9.57,0.19,12.51,0.26C352.03,346.3,347.84,346.21,343.56,346.19z"/>
				<path class="st0" d="M382.85,349.32c-14.56-1.78-19.66-2.4-21.45-2.62c-1.74-0.1-3.52-0.18-5.33-0.24
					c-2.94-0.08-7.25-0.18-12.51-0.26c-39.83-0.25-88.08,4.44-105.08,6.27c-3.04,0.33-6.08,1.67-9.08,3.81
					c-20.18,14.35-38.72,64.34-44.25,80.34c-0.9,2.01-1.39,3.14-1.39,3.14l0.28,0.14l85.1,41.36c2.44-6.82,4.93-13.29,7.47-19.42
					c14.46-34.87,30.53-59.08,46.42-75.82c24.01-25.28,47.61-33.49,64.65-35.57C386.08,349.9,384.47,349.52,382.85,349.32z"/>
			</g>
			<g>
				<path class="st1" d="M457.22,655.31l-58.72-2.4l0.47-29.87l-87.26,72.67L395.81,770l3.59-25.96c0,0,34.63,1.89,51.12-12.43
					C458.11,715.47,464.38,690.21,457.22,655.31z"/>
				<path class="st1" d="M489.95,503.38l-0.26,0.17c0.51,0.69,1.19,1.62,2.01,2.76C490.59,504.43,489.95,503.38,489.95,503.38z"/>
				<path class="st1" d="M468.4,709.7c0,0,0.89-1.35,2.47-3.78c-1.04,1.56-2.07,3.08-3.09,4.56C468.4,709.7,468.4,709.7,468.4,709.7
					z"/>
				<path class="st1" d="M477.88,695.05c-2.93,4.59-5.35,8.33-7.01,10.88C473.19,702.45,475.53,698.81,477.88,695.05z"/>
				<path class="st1" d="M421.83,573.2c20.02,31.7,30.65,59.02,35.39,82.12l2.01,0.08C452.2,623.48,434.02,591.85,421.83,573.2z"/>
				<path class="st3" d="M491.71,506.31c-0.82-1.14-1.5-2.07-2.01-2.76l-79.33,52.5c4.12,5.85,7.94,11.57,11.47,17.14
					c12.19,18.66,30.37,50.29,37.39,82.2l-2.01-0.08c7.16,34.9,0.9,60.16-6.7,76.3c1.28-1.11,2.46-2.32,3.5-3.64
					c9.34-11.86,12.61-16.02,13.76-17.48c1.02-1.49,2.06-3.01,3.09-4.56c1.66-2.55,4.08-6.29,7.01-10.88
					c21.85-34.96,44.32-80.02,52.11-96c1.39-2.86,1.97-6.27,1.89-10.08C531.38,563.39,501.49,519.88,491.71,506.31z"/>
			</g>
		</g>
	</g>
</g>
</svg>
