<?xml version="1.0" encoding="utf-8"?>
<!-- Generator: Adobe Illustrator 26.3.1, SVG Export Plug-In . SVG Version: 6.00 Build 0)  -->
<svg version="1.1" id="Layer_1" xmlns="http://www.w3.org/2000/svg" xmlns:xlink="http://www.w3.org/1999/xlink" x="0px" y="0px"
	 viewBox="0 0 200 200" style="enable-background:new 0 0 200 200;" xml:space="preserve">
<style type="text/css">
	.st0{fill:#FFDDC9;}
	.st1{fill:#8DB845;}
	.st2{fill:#6A8A34;}
	.st3{fill:#FFFFFF;}
	.st4{fill:#6F7DA1;}
	.st5{fill:#535E79;}
	.st6{fill:#F69435;}
	.st7{fill:#B96F28;}
	.st8{fill:#83B1CA;}
	.st9{fill:#628598;}
	.st10{font-family:'Protipo-LightItalic';}
	.st11{font-size:8.284px;}
	.st12{fill:#F04923;}
	.st13{fill:#B4371A;}
	.st14{fill:#D7A581;}
	.st15{fill:#A17C61;}
	.st16{fill:#B3B3B3;}
	.st17{fill:#868686;}
</style>
<g>
	<path class="st0" d="M27,193.7c0,0,2.8-19.7-1-27.7c-3.8-8-8.4-7.4-14-19.9C6.4,133.5,1,129.9,2.7,129c1.7-1,8.3-3.3,15.5,12.2
		c0,0,3.7,5.4,2.4-4.7c-1.4-10.1-2.3-38.9,1-40.5c2.5-1.2,4.5,0.5,4.6,15.2c0.1,14.7,2.9,18.8,4,11.9c0.9-6.1-2.7-25.9-0.2-31.5
		c1.8-3.9,7.2-7.6,6.1,16.6c-1,22.8,3.4,17.7,3.3,12.2c-0.1-5,0.3-20,1-23.2c0.7-3.2,6.1-6.1,4.5,14.8c-1.6,20.9,2.6,20.7,2.8,12.9
		c0.2-7.8-1.9-16.7-0.3-18.2c1.5-1.5,7.8-3.9,3.6,55.2c-1,14.1-0.3,23.1,1.5,28.8C52.3,190.7,43.3,199.6,27,193.7z"/>
</g>
<g>
	<g>
		<g>
			<rect x="107.5" y="15" class="st1" width="31" height="41.4"/>
			<polygon class="st2" points="132.3,15 107.5,15 114.8,6.1 139.5,6.1 			"/>
			<g>
				<path class="st3" d="M117.3,33.2l-3.5,3.1l0.8,0.6c0,0-2.3,3.2-2.4,4.8c-0.1,1.6-0.3,4.4,8.5,3.9l0-0.9c0,0-6.8,0.3-7.4-1.7
					c-0.6-2,1.3-4.2,2.2-5.7l0.7,0.5L117.3,33.2z"/>
				<path class="st3" d="M129.6,34l-1.1-4.6l-0.9,0.5c0,0-1.7-3.6-3.1-4.4c-1.3-0.8-3.6-2.3-7.2,6.1l0.7,0.4c0,0,2.8-6.4,4.8-6.1
					s3,3,3.9,4.6L126,31L129.6,34z"/>
				<path class="st3" d="M122.5,45.2l4.4,1.3l0-1c0,0,3.9,0.3,5.2-0.5c1.3-0.8,3.8-2.1-1.5-9.5l-0.7,0.4c0,0,3.9,5.7,2.7,7.3
					c-1.3,1.6-4.1,1.2-5.8,1.2l0-0.9L122.5,45.2z"/>
			</g>
		</g>
		<g>
			<rect x="151.7" y="15" class="st4" width="31" height="41.4"/>
			<polygon class="st5" points="176.4,15 151.7,15 159,6.1 183.7,6.1 			"/>
			<g>
				<path class="st3" d="M161.4,33.2l-3.5,3.1l0.8,0.6c0,0-2.3,3.2-2.4,4.8c-0.1,1.6-0.3,4.4,8.5,3.9l0-0.9c0,0-6.8,0.3-7.4-1.7
					c-0.6-2,1.3-4.2,2.2-5.7l0.7,0.5L161.4,33.2z"/>
				<path class="st3" d="M173.7,34l-1.1-4.6l-0.9,0.5c0,0-1.7-3.6-3.1-4.4s-3.6-2.3-7.2,6.1l0.7,0.4c0,0,2.8-6.4,4.8-6.1
					c2,0.3,3,3,3.9,4.6l-0.8,0.4L173.7,34z"/>
				<path class="st3" d="M166.7,45.2l4.4,1.3l0-1c0,0,3.9,0.3,5.2-0.5c1.3-0.8,3.8-2.1-1.5-9.5l-0.7,0.4c0,0,3.9,5.7,2.7,7.3
					c-1.3,1.6-4.1,1.2-5.8,1.2l0-0.9L166.7,45.2z"/>
			</g>
		</g>
		<g>
			<rect x="63.4" y="15" class="st6" width="31" height="41.4"/>
			<polygon class="st7" points="88.1,15 63.4,15 70.7,6.1 95.4,6.1 			"/>
			<g>
				<path class="st3" d="M73.1,33.2l-3.5,3.1l0.8,0.6c0,0-2.3,3.2-2.4,4.8c-0.1,1.6-0.3,4.4,8.5,3.9l0-0.9c0,0-6.8,0.3-7.4-1.7
					c-0.6-2,1.3-4.2,2.2-5.7l0.7,0.5L73.1,33.2z"/>
				<path class="st3" d="M85.4,34l-1.1-4.6l-0.9,0.5c0,0-1.7-3.6-3.1-4.4c-1.3-0.8-3.6-2.3-7.2,6.1l0.7,0.4c0,0,2.8-6.4,4.8-6.1
					c2,0.3,3,3,3.9,4.6L81.8,31L85.4,34z"/>
				<path class="st3" d="M78.4,45.2l4.4,1.3l0-1c0,0,3.9,0.3,5.2-0.5c1.3-0.8,3.8-2.1-1.5-9.5l-0.7,0.4c0,0,3.9,5.7,2.7,7.3
					c-1.3,1.6-4.1,1.2-5.8,1.2l0-0.9L78.4,45.2z"/>
			</g>
		</g>
		<g>
			<rect x="19.2" y="15" class="st8" width="31" height="41.4"/>
			<polygon class="st9" points="44,15 19.2,15 26.5,6.1 51.2,6.1 			"/>
			<g>
				<path class="st3" d="M29,33.2l-3.5,3.1l0.8,0.6c0,0-2.3,3.2-2.4,4.8s-0.3,4.4,8.5,3.9l0-0.9c0,0-6.8,0.3-7.4-1.7
					c-0.6-2,1.3-4.2,2.2-5.7l0.7,0.5L29,33.2z"/>
				<path class="st3" d="M41.3,34l-1.1-4.6l-0.9,0.5c0,0-1.7-3.6-3.1-4.4s-3.6-2.3-7.2,6.1l0.7,0.4c0,0,2.8-6.4,4.8-6.1s3,3,3.9,4.6
					L37.7,31L41.3,34z"/>
				<path class="st3" d="M34.2,45.2l4.4,1.3l0-1c0,0,3.9,0.3,5.2-0.5c1.3-0.8,3.8-2.1-1.5-9.5l-0.7,0.4c0,0,3.9,5.7,2.7,7.3
					c-1.3,1.6-4.1,1.2-5.8,1.2l0-0.9L34.2,45.2z"/>
			</g>
		</g>
		<text transform="matrix(0.895 0 0 1 73.0276 154.7421)" class="st10 st11">Electricals</text>
		<text transform="matrix(0.895 0 0 1 63.391 69.0929)" class="st10 st11">Textiles</text>
		<text transform="matrix(0.895 0 0 1 17.9417 69.0927)"><tspan x="0" y="0" class="st10 st11">Training</tspan><tspan x="0" y="9.9" class="st10 st11">Equipment</tspan></text>
		<text transform="matrix(0.895 0 0 1 156.7542 68.3669)" class="st10 st11">Metals</text>
		<text transform="matrix(0.895 0 0 1 108.9849 69.0927)" class="st10 st11">Interirors</text>
		<text transform="matrix(0.895 0 0 1 166.6898 154.9902)" class="st10 st11">Other</text>
		<text transform="matrix(0.895 0 0 1 121.8258 154.7423)" class="st10 st11">Phones</text>
	</g>
	<g>
		<g>
			<rect x="73" y="101.9" class="st12" width="31" height="41.4"/>
			<polygon class="st13" points="97.8,101.9 73,101.9 80.3,93 105,93 			"/>
			<g>
				<path class="st3" d="M82.8,120.1l-3.5,3.1l0.8,0.6c0,0-2.3,3.2-2.4,4.8c-0.1,1.6-0.3,4.4,8.5,3.9l0-0.9c0,0-6.8,0.3-7.4-1.7
					c-0.6-2,1.3-4.2,2.2-5.7l0.7,0.5L82.8,120.1z"/>
				<path class="st3" d="M95.1,121l-1.1-4.6l-0.9,0.5c0,0-1.7-3.6-3.1-4.4c-1.3-0.8-3.6-2.3-7.2,6.1l0.7,0.4c0,0,2.8-6.4,4.8-6.1
					c2,0.3,3,3,3.9,4.6l-0.8,0.4L95.1,121z"/>
				<path class="st3" d="M88,132.1l4.4,1.3l0-1c0,0,3.9,0.3,5.2-0.5c1.3-0.8,3.8-2.1-1.5-9.5l-0.7,0.4c0,0,3.9,5.7,2.7,7.3
					c-1.3,1.6-4.1,1.2-5.8,1.2l0-0.9L88,132.1z"/>
			</g>
		</g>
		<g>
			<rect x="161.3" y="101.9" class="st14" width="31" height="41.4"/>
			<polygon class="st15" points="186.1,101.9 161.3,101.9 168.6,93 193.3,93 			"/>
			<g>
				<path class="st3" d="M171.1,120.1l-3.5,3.1l0.8,0.6c0,0-2.3,3.2-2.4,4.8c-0.1,1.6-0.3,4.4,8.5,3.9l0-0.9c0,0-6.8,0.3-7.4-1.7
					c-0.6-2,1.3-4.2,2.2-5.7l0.7,0.5L171.1,120.1z"/>
				<path class="st3" d="M183.4,121l-1.1-4.6l-0.9,0.5c0,0-1.7-3.6-3.1-4.4s-3.6-2.3-7.2,6.1l0.7,0.4c0,0,2.8-6.4,4.8-6.1
					c2,0.3,3,3,3.9,4.6l-0.8,0.4L183.4,121z"/>
				<path class="st3" d="M176.3,132.1l4.4,1.3l0-1c0,0,3.9,0.3,5.2-0.5c1.3-0.8,3.8-2.1-1.5-9.5l-0.7,0.4c0,0,3.9,5.7,2.7,7.3
					c-1.3,1.6-4.1,1.2-5.8,1.2l0-0.9L176.3,132.1z"/>
			</g>
		</g>
		<g>
			<rect x="117.2" y="101.9" class="st16" width="31" height="41.4"/>
			<polygon class="st17" points="141.9,101.9 117.2,101.9 124.4,93 149.2,93 			"/>
			<g>
				<path class="st3" d="M126.9,120.1l-3.5,3.1l0.8,0.6c0,0-2.3,3.2-2.4,4.8c-0.1,1.6-0.3,4.4,8.5,3.9l0-0.9c0,0-6.8,0.3-7.4-1.7
					c-0.6-2,1.3-4.2,2.2-5.7l0.7,0.5L126.9,120.1z"/>
				<path class="st3" d="M139.2,121l-1.1-4.6l-0.9,0.5c0,0-1.7-3.6-3.1-4.4c-1.3-0.8-3.6-2.3-7.2,6.1l0.7,0.4c0,0,2.8-6.4,4.8-6.1
					c2,0.3,3,3,3.9,4.6l-0.8,0.4L139.2,121z"/>
				<path class="st3" d="M132.2,132.1l4.4,1.3l0-1c0,0,3.9,0.3,5.2-0.5c1.3-0.8,3.8-2.1-1.5-9.5l-0.7,0.4c0,0,3.9,5.7,2.7,7.3
					c-1.3,1.6-4.1,1.2-5.8,1.2l0-0.9L132.2,132.1z"/>
			</g>
		</g>
	</g>
</g>
</svg>
