<?xml version="1.0" encoding="utf-8"?>
<!-- Generator: Adobe Illustrator 26.3.1, SVG Export Plug-In . SVG Version: 6.00 Build 0)  -->
<svg version="1.1" id="Layer_1" xmlns="http://www.w3.org/2000/svg" xmlns:xlink="http://www.w3.org/1999/xlink" x="0px" y="0px"
	 viewBox="0 0 200 200" style="enable-background:new 0 0 200 200;" xml:space="preserve">
<style type="text/css">
	.st0{fill:#8DB845;}
	.st1{fill:#8DA538;}
	.st2{fill:#9DAE39;}
	.st3{fill:#707E44;}
	.st4{fill:#808080;}
	.st5{fill:#FFFFFF;}
	.st6{fill:#CCCCCC;}
	.st7{font-family:'Protipo-Light';}
	.st8{font-size:14.4052px;}
</style>
<g>
	<g>
		<rect x="86.5" y="61.4" class="st0" width="25.7" height="50.1"/>
		<rect x="121.5" y="85.6" class="st1" width="25.7" height="25.8"/>
		<rect x="16.6" y="33.3" class="st2" width="25.7" height="78.2"/>
		<rect x="51.5" y="8.7" class="st3" width="25.7" height="102.8"/>
		<path class="st4" d="M149.9,113.2H13.8c-1.1,0-2-0.9-2-2v0c0-1.1,0.9-2,2-2h136.1c1.1,0,2,0.9,2,2v0
			C151.9,112.3,151,113.2,149.9,113.2z"/>
	</g>
	<g>
		<path class="st5" d="M91.7,97.1c0.1-0.2,0.2-0.5,0.5-0.7c0.2-0.2,0.5-0.4,0.7-0.5c0.2-0.1,0.4-0.1,0.7-0.2
			c0.4-0.1,0.8-0.1,1.2-0.1c1.2,0.1,2.1,0.4,2.8,1.1c0.5,0.5,0.9,1.1,1.2,1.7c0.1,0.2,0.2,0.5,0.2,0.7c0.1,0.2,0.1,0.4,0.1,0.5
			c3,0,4.5,0.1,4.6,0.2c0,0,0,0.1,0,0.3c0,0.1-0.1,0.3-0.2,0.5c-0.2,0.4-0.4,0.6-0.7,0.7h-5.3c-3.2,0-5,0-5.4,0.1
			c-0.3,0-0.6,0-0.7-0.1c0,0-0.1-0.1-0.1-0.2l0-0.2c0.3-0.9,0.6-1.3,1-1.3c0.3,0,0.9,0,1.9,0c-1-0.2-1.7-0.4-2-0.7
			C91.8,98.4,91.6,97.8,91.7,97.1z M97.4,97.9c-0.7-0.4-1.6-0.7-2.6-0.7c-1.1-0.1-1.9,0.2-2.4,0.6c-0.4,0.4,0.1,0.7,1.5,1.1
			c0.5,0.1,1.2,0.3,1.9,0.4c0.6,0.1,1.2,0.2,1.8,0.3l1.1,0c-0.1-0.1-0.1-0.3-0.2-0.4c-0.1-0.2-0.2-0.3-0.3-0.5
			C98,98.4,97.7,98.1,97.4,97.9z"/>
		<path class="st5" d="M93.1,88.1c0.6-0.1,1.9-0.1,4,0c0.3,0,0.7,0,1.1,0.1l0.5,0l0.5,0c0.7,0,1.1,0.1,1.2,0.1c1,0,1.8,0,2.3-0.1
			c0.2,0,0.3-0.1,0.4-0.1l0.1-0.1l0.1,0c0.1,0,0.2,0.1,0.2,0.3c0,0.5-0.3,0.8-0.9,1.1c-0.4,0.2-1,0.3-1.8,0.3
			c0.3,0.1,0.7,0.2,0.9,0.3c1.2,0.4,1.8,0.9,1.9,1.6v0.2l0,0.2c0,0.2-0.1,0.4-0.2,0.6c-0.2,0.5-0.7,1-1.3,1.3
			c-0.6,0.3-1.4,0.4-2.3,0.5c-0.3,0-0.7,0-1.2,0h-0.6l-0.5,0c-0.5,0-1.1-0.1-1.8-0.2c-0.5-0.1-1-0.2-1.6-0.3
			c-0.9-0.2-1.7-0.6-2.2-1.2c-0.4-0.5-0.6-0.9-0.6-1.4c0-0.8,0.9-1.4,2.6-1.7c0.2-0.1,0.5-0.1,0.8-0.1l-1.9-0.1H93h-0.2
			c-0.1,0-0.3,0-0.4,0c-0.4,0-0.6-0.1-0.7-0.2c-0.2-0.1-0.2-0.3,0.1-0.5C92,88.3,92.5,88.1,93.1,88.1z M101.9,90.2
			c-1.2-0.4-2.7-0.7-4.3-0.7c-1.4,0-2.6,0.1-3.4,0.2c-0.7,0.1-1.2,0.3-1.7,0.6c-0.4,0.3-0.6,0.5-0.6,0.8c0,0.6,0.9,0.9,2.7,1.2
			c1.1,0.1,2.1,0.2,3,0.2c1.6,0,2.9-0.1,4-0.4c1.1-0.3,1.7-0.6,1.7-1C103.3,90.9,102.8,90.5,101.9,90.2z"/>
		<path class="st5" d="M91.7,82.4c0.1-0.2,0.2-0.5,0.5-0.7c0.2-0.2,0.5-0.4,0.7-0.5c0.2-0.1,0.4-0.1,0.7-0.2
			c0.4-0.1,0.8-0.1,1.2-0.1c1.2,0.1,2.1,0.4,2.8,1.1c0.5,0.5,0.9,1.1,1.2,1.7c0.1,0.2,0.2,0.5,0.2,0.7c0.1,0.2,0.1,0.4,0.1,0.5
			c3,0,4.5,0.1,4.6,0.2c0,0,0,0.1,0,0.3c0,0.1-0.1,0.3-0.2,0.5c-0.2,0.4-0.4,0.6-0.7,0.7h-5.3c-3.2,0-5,0-5.4,0.1
			c-0.3,0-0.6,0-0.7-0.1c0,0-0.1-0.1-0.1-0.2l0-0.2c0.3-0.9,0.6-1.3,1-1.3c0.3,0,0.9,0,1.9,0c-1-0.2-1.7-0.4-2-0.7
			C91.8,83.7,91.6,83.1,91.7,82.4z M97.4,83.2c-0.7-0.4-1.6-0.7-2.6-0.7c-1.1-0.1-1.9,0.2-2.4,0.6c-0.4,0.4,0.1,0.7,1.5,1.1
			c0.5,0.1,1.2,0.3,1.9,0.4c0.6,0.1,1.2,0.2,1.8,0.3l1.1,0c-0.1-0.1-0.1-0.3-0.2-0.4c-0.1-0.2-0.2-0.3-0.3-0.5
			C98,83.7,97.7,83.4,97.4,83.2z"/>
		<path class="st5" d="M92.1,73.7c0,0.2,0,0.6,0,1.3l0,0.4l0,0.4c0,0.3,0,0.5,0,0.6c0,0.1,0,0.2,0,0.3l0,0.4c0,0.3,0,0.6,0,0.9
			c0.4-0.1,0.9-0.1,1.5-0.1c1.2,0,2.5,0.1,3.9,0.1v-0.2v-0.3v-0.6c0-0.5,0-0.8,0-0.8c0-0.2,0.1-0.2,0.2-0.2c0.1,0,0.2,0.1,0.2,0.3
			V78c2.5,0.1,4,0.1,4.6,0.2c0.2,0,0.4,0,0.6,0.1c0-0.4,0-0.7,0-1.1c0-0.4,0-0.8,0-1c0-0.5,0-1-0.1-1.7c0-0.7,0-1.1,0-1.2
			c0-0.1,0.1-0.1,0.1-0.1c0.1,0,0.1,0,0.2,0c0.1,0,0.1,0.2,0.2,0.5c0,0.2,0,0.7,0,1.3c0,0.7,0,1.1,0,1.4v1.1c0,0.5,0,0.9,0,1.1
			c0,0.1,0,0.3-0.1,0.5c-0.1,0.2-0.2,0.4-0.5,0.5c-0.1,0-0.2,0.1-0.4,0.1l-0.4,0.1c-0.7,0.1-2.5,0.1-5.5-0.1c-2.9-0.1-4.5-0.2-5-0.3
			c-0.1,0-0.1-0.2-0.1-0.5c0,0,0-0.1,0-0.2v-0.3v-0.1c0-0.2,0-0.4,0-0.5l0-0.6c0-0.5,0-0.8,0-1.1c0-0.2,0-0.5,0-0.8
			c0-0.3,0-0.6,0-0.9c0-0.7,0-1.1,0-1.2c0-0.1,0.1-0.1,0.2-0.1c0.1,0,0.1,0,0.2,0l0.1,0l0.1,0.1c0,0.1,0.1,0.1,0.1,0.1
			S92.1,73.5,92.1,73.7z"/>
		<path class="st5" d="M98.6,69c0.1,0,0.1-0.1,0.2-0.1l0.3-0.1c0.2-0.1,0.4-0.2,0.6-0.3c0.6-0.3,1-0.5,1.2-0.6
			c0.4-0.2,0.9-0.5,1.5-0.8c0.6-0.3,1-0.5,1-0.5c0.1,0,0.1,0,0.2,0.1c0.1,0,0.1,0.1,0.1,0.2c0,0.1-0.1,0.2-0.4,0.4
			c-0.2,0.1-0.6,0.3-1.2,0.6c-0.6,0.3-1,0.5-1.3,0.6c-0.1,0.1-0.3,0.1-0.5,0.2l-0.3,0.2L99.8,69c-0.5,0.3-0.8,0.4-1,0.5
			c0.1,0.2,0.2,0.5,0.3,0.7c0,0.2,0.1,0.4,0.1,0.5c2.9,0,4.4,0.1,4.5,0.2c0,0,0,0.1,0,0.3c0,0.1-0.1,0.3-0.2,0.5
			c-0.2,0.4-0.4,0.6-0.7,0.7h-5.2c-3.1,0-4.9,0-5.3,0.1c-0.3,0-0.6,0-0.7-0.1c0,0-0.1-0.1-0.1-0.2l0-0.2c0.3-0.9,0.6-1.3,1-1.3
			c0.3,0,0.9,0,1.8,0c-1-0.2-1.6-0.4-2-0.7c-0.6-0.5-0.8-1.1-0.7-1.8c0.1-0.2,0.2-0.5,0.5-0.7c0.2-0.2,0.5-0.4,0.7-0.5
			c0.2-0.1,0.4-0.1,0.7-0.2c0.4-0.1,0.8-0.1,1.2-0.1c1.1,0.1,2.1,0.4,2.8,1.1C98,68.2,98.3,68.6,98.6,69z M97.5,70.7l1.1,0
			c-0.1-0.1-0.1-0.3-0.2-0.4c-0.1-0.2-0.2-0.3-0.3-0.4c-0.2-0.4-0.5-0.6-0.9-0.8c-0.7-0.4-1.6-0.7-2.6-0.7c-1.1-0.1-1.9,0.2-2.3,0.6
			c-0.4,0.4,0.1,0.7,1.4,1.1c0.5,0.1,1.1,0.3,1.9,0.4C96.3,70.5,96.9,70.6,97.5,70.7z"/>
	</g>
	<g>
		<path class="st5" d="M29.2,96c0-0.1,0.1-0.2,0.2-0.2c0.3,0,0.7,0,1.3,0.1c0.4,0,0.9,0.1,1.3,0.2c0.5,0.1,1,0.2,1.5,0.4
			c1.2,0.4,1.8,1,1.9,1.7c0,0.1,0,0.3,0,0.4c0,0.2-0.1,0.4-0.2,0.6c-0.3,0.5-0.7,1-1.4,1.3c-0.6,0.3-1.4,0.5-2.3,0.6
			c-0.4,0-0.8,0.1-1.2,0.1h-0.5l-0.5,0c-0.5,0-1.1-0.1-1.8-0.2c-0.5-0.1-1-0.2-1.6-0.4c-0.9-0.2-1.7-0.7-2.2-1.3
			c-0.4-0.5-0.6-1-0.6-1.5c0-0.6,0.5-1.1,1.5-1.5c0.1,0,0.1,0.1,0.1,0.1l0,0.1c0,0,0,0.1,0,0.1c-0.8,0.4-1.3,0.8-1.3,1.2
			c0,0.7,0.9,1.1,2.8,1.4l0.7,0.1l0.8,0.1c0.6,0.1,1.1,0.1,1.6,0.1c1.6,0,2.9-0.2,4-0.5c1.1-0.3,1.6-0.7,1.6-1.2
			c0-0.4-0.4-0.7-1.3-1.1c-0.4-0.2-1-0.3-1.8-0.5c-0.3-0.1-0.7-0.1-1.1-0.1c-0.2,0-0.3,0-0.5-0.1c-0.1,0-0.3,0-0.4,0v1.2
			c0,0.2-0.1,0.3-0.2,0.3c-0.1,0-0.2-0.1-0.2-0.2C29.3,97.3,29.2,96.8,29.2,96z"/>
		<path class="st5" d="M34.8,88.4c0-0.1,0.1-0.1,0.1-0.2c0.1,0,0.1,0,0.2,0c0.1,0,0.1,0.2,0.2,0.5c0,0.2,0,0.7,0,1.3
			c0,0.7,0,1.1,0,1.4v1.1c0,0.5,0,0.9,0,1.1V94c0,0.2-0.1,0.4-0.2,0.5c-0.2,0.1-0.5,0.1-1.2,0.2c-0.8,0-2.6,0-5.5,0
			c-2.9-0.1-4.6-0.1-5-0.2c-0.1,0-0.1-0.3-0.1-0.9c0-0.3,0.1-0.5,0.3-0.5c0.1,0,0.7-0.1,1.7-0.1h0.5h0.5h1.2c1,0,1.9,0,2.6,0
			c2.1,0,3.5,0,4.2,0.1c0.3,0,0.5,0,0.6,0.1c0-0.4,0-0.7,0-1c0-0.4,0-0.7,0-0.9c0-0.5,0-1-0.1-1.6C34.7,88.8,34.8,88.4,34.8,88.4z"
			/>
		<path class="st5" d="M24.7,81.2c0.6-0.1,1.9-0.1,4,0c0.3,0,0.7,0,1.1,0.1l0.5,0l0.5,0c0.7,0,1.1,0.1,1.2,0.1c1,0,1.8,0,2.3-0.1
			c0.2,0,0.3-0.1,0.4-0.1l0.1-0.1l0.1,0c0.1,0,0.2,0.1,0.2,0.3c0,0.5-0.3,0.8-0.9,1.1c-0.4,0.2-1,0.3-1.8,0.3
			c0.3,0.1,0.7,0.2,0.9,0.3c1.2,0.4,1.8,0.9,1.9,1.6v0.2l0,0.2c0,0.2-0.1,0.4-0.2,0.6c-0.2,0.5-0.7,1-1.3,1.3
			c-0.6,0.3-1.4,0.4-2.3,0.5c-0.3,0-0.7,0-1.2,0h-0.6l-0.5,0c-0.5,0-1.1-0.1-1.8-0.2c-0.5-0.1-1-0.2-1.6-0.3
			c-0.9-0.2-1.7-0.6-2.2-1.2c-0.4-0.5-0.6-0.9-0.6-1.4c0-0.8,0.9-1.4,2.6-1.7c0.2-0.1,0.5-0.1,0.8-0.1l-1.9-0.1h-0.1h-0.2
			c-0.1,0-0.3,0-0.4,0c-0.4,0-0.6-0.1-0.7-0.2c-0.2-0.1-0.2-0.3,0.1-0.5C23.6,81.5,24.1,81.3,24.7,81.2z M33.5,83.4
			c-1.2-0.4-2.7-0.7-4.3-0.7c-1.4,0-2.6,0.1-3.4,0.2c-0.7,0.1-1.2,0.3-1.7,0.6c-0.4,0.3-0.6,0.5-0.6,0.8c0,0.6,0.9,0.9,2.7,1.2
			c1.1,0.1,2.1,0.2,3,0.2c1.6,0,2.9-0.1,4-0.4c1.1-0.3,1.7-0.6,1.7-1C34.9,84,34.4,83.7,33.5,83.4z"/>
		<path class="st5" d="M30,74.7c0.5-0.4,1.1-0.6,1.9-0.8c0.9-0.1,1.5-0.1,2.1,0.3c0.5,0.3,0.8,0.6,1.1,0.9c0.3,0.5,0.5,1.2,0.5,2
			c0,0.8-0.2,1.5-0.6,2c-0.3,0.4-0.7,0.7-1.2,0.8c-0.5,0.1-1.1,0.1-1.9-0.1c-0.1,0-0.2-0.1-0.2-0.3c0-0.1,0.1-0.1,0.1-0.2
			c0,0,0.1,0,0.1,0l0.1,0l0.2,0c0.1,0,0.3,0,0.4,0.1c0.3,0,0.6,0,0.9-0.1c0.8-0.2,1.3-0.7,1.5-1.5c0.2-0.8,0-1.4-0.4-1.9
			c-0.4-0.5-0.9-0.7-1.6-0.7c-0.7,0-1.4,0.3-2.2,0.8c-0.3,0.2-0.7,0.4-1,0.7l-0.5,0.4l-0.4,0.3c-0.6,0.5-1.3,0.9-1.9,1.1
			C26,79,25.3,79,24.7,78.9c-0.6-0.2-1-0.5-1.3-0.9c-0.2-0.4-0.3-0.8-0.3-1.3c0.1-1.1,0.7-1.7,1.6-1.8c0.1,0,0.1,0,0.1,0.1
			c0,0.1,0,0.2-0.2,0.3l0,0l-0.1,0l-0.1,0.1c-0.1,0.1-0.3,0.2-0.4,0.3c-0.3,0.3-0.5,0.6-0.5,1.1c0,0.5,0.3,0.8,0.8,1
			c0.4,0.1,0.8,0.2,1.2,0C26.4,77.3,27.9,76.4,30,74.7z"/>
		<path class="st5" d="M30,67.6c0.5-0.4,1.1-0.6,1.9-0.8c0.9-0.1,1.5-0.1,2.1,0.3c0.5,0.3,0.8,0.6,1.1,0.9c0.3,0.5,0.5,1.2,0.5,2
			c0,0.8-0.2,1.5-0.6,2c-0.3,0.4-0.7,0.7-1.2,0.8c-0.5,0.1-1.1,0.1-1.9-0.1c-0.1,0-0.2-0.1-0.2-0.3c0-0.1,0.1-0.1,0.1-0.2
			c0,0,0.1,0,0.1,0l0.1,0l0.2,0c0.1,0,0.3,0,0.4,0.1c0.3,0,0.6,0,0.9-0.1c0.8-0.2,1.3-0.7,1.5-1.5c0.2-0.8,0-1.4-0.4-1.9
			c-0.4-0.5-0.9-0.7-1.6-0.7c-0.7,0-1.4,0.3-2.2,0.8c-0.3,0.2-0.7,0.4-1,0.7l-0.5,0.4l-0.4,0.3c-0.6,0.5-1.3,0.9-1.9,1.1
			c-0.8,0.3-1.5,0.4-2.1,0.2c-0.6-0.2-1-0.5-1.3-0.9c-0.2-0.4-0.3-0.8-0.3-1.3c0.1-1.1,0.7-1.7,1.6-1.8c0.1,0,0.1,0,0.1,0.1
			c0,0.1,0,0.2-0.2,0.3l0,0l-0.1,0l-0.1,0.1c-0.1,0.1-0.3,0.2-0.4,0.3c-0.3,0.3-0.5,0.6-0.5,1.1c0,0.5,0.3,0.8,0.8,1
			c0.4,0.1,0.8,0.2,1.2,0C26.4,70.3,27.9,69.3,30,67.6z"/>
	</g>
	<g>
		<path class="st5" d="M57.8,97.1c0.1-0.2,0.2-0.5,0.5-0.7c0.2-0.2,0.5-0.4,0.7-0.5c0.2-0.1,0.4-0.1,0.7-0.2
			c0.4-0.1,0.8-0.1,1.2-0.1c1.2,0.1,2.1,0.4,2.8,1.1c0.5,0.5,0.9,1.1,1.2,1.7c0.1,0.2,0.2,0.5,0.2,0.7c0.1,0.2,0.1,0.4,0.1,0.5
			c3,0,4.5,0.1,4.6,0.2c0,0,0,0.1,0,0.3c0,0.1-0.1,0.3-0.2,0.5c-0.2,0.4-0.4,0.6-0.7,0.7h-5.3c-3.2,0-5,0-5.4,0.1
			c-0.3,0-0.6,0-0.7-0.1c0,0-0.1-0.1-0.1-0.2l0-0.2c0.3-0.9,0.6-1.3,1-1.3c0.3,0,0.9,0,1.9,0c-1-0.2-1.7-0.4-2-0.7
			C57.9,98.4,57.7,97.8,57.8,97.1z M63.5,97.9c-0.7-0.4-1.6-0.7-2.6-0.7c-1.1-0.1-1.9,0.2-2.4,0.6c-0.4,0.4,0.1,0.7,1.5,1.1
			c0.5,0.1,1.2,0.3,1.9,0.4c0.6,0.1,1.2,0.2,1.8,0.3l1.1,0c-0.1-0.1-0.1-0.3-0.2-0.4c-0.1-0.2-0.2-0.3-0.3-0.5
			C64.1,98.4,63.8,98.1,63.5,97.9z"/>
		<path class="st5" d="M69.3,88.2c0-0.1,0.1-0.1,0.1-0.2c0.1,0,0.1,0,0.2,0c0.1,0,0.1,0.2,0.2,0.5c0,0.2,0,0.7,0,1.3
			c0,0.7,0,1.1,0,1.4v1.1c0,0.5,0,0.9,0,1.1v0.3c0,0.2-0.1,0.4-0.2,0.5c-0.2,0.1-0.5,0.1-1.2,0.2c-0.8,0-2.6,0-5.5,0
			c-2.9-0.1-4.6-0.1-5-0.2c-0.1,0-0.1-0.3-0.1-0.9c0-0.3,0.1-0.5,0.3-0.5c0.1,0,0.7-0.1,1.7-0.1h0.5h0.5h1.2c1,0,1.9,0,2.6,0
			c2.1,0,3.5,0,4.2,0.1c0.3,0,0.5,0,0.6,0.1c0-0.4,0-0.7,0-1c0-0.4,0-0.7,0-0.9c0-0.5,0-1-0.1-1.6C69.2,88.6,69.2,88.2,69.3,88.2z"
			/>
		<path class="st5" d="M59.2,81c0.6-0.1,1.9-0.1,4,0c0.3,0,0.7,0,1.1,0.1l0.5,0l0.5,0c0.7,0,1.1,0.1,1.2,0.1c1,0,1.8,0,2.3-0.1
			c0.2,0,0.3-0.1,0.4-0.1l0.1-0.1l0.1,0c0.1,0,0.2,0.1,0.2,0.3c0,0.5-0.3,0.8-0.9,1.1c-0.4,0.2-1,0.3-1.8,0.3
			c0.3,0.1,0.7,0.2,0.9,0.3c1.2,0.4,1.8,0.9,1.9,1.6v0.2l0,0.2c0,0.2-0.1,0.4-0.2,0.6c-0.2,0.5-0.7,1-1.3,1.3
			C67.8,87,67,87.2,66,87.2c-0.3,0-0.7,0-1.2,0h-0.6l-0.5,0c-0.5,0-1.1-0.1-1.8-0.2c-0.5-0.1-1-0.2-1.6-0.3
			c-0.9-0.2-1.7-0.6-2.2-1.2c-0.4-0.5-0.6-0.9-0.6-1.4c0-0.8,0.9-1.4,2.6-1.7c0.2-0.1,0.5-0.1,0.8-0.1l-1.9-0.1h-0.1h-0.2
			c-0.1,0-0.3,0-0.4,0c-0.4,0-0.6-0.1-0.7-0.2c-0.2-0.1-0.2-0.3,0.1-0.5C58.1,81.3,58.6,81.1,59.2,81z M67.9,83.2
			c-1.2-0.4-2.7-0.7-4.3-0.7c-1.4,0-2.6,0.1-3.4,0.2c-0.7,0.1-1.2,0.3-1.7,0.6c-0.4,0.3-0.6,0.5-0.6,0.8c0,0.6,0.9,0.9,2.7,1.2
			c1.1,0.1,2.1,0.2,3,0.2c1.6,0,2.9-0.1,4-0.4c1.1-0.3,1.7-0.6,1.7-1C69.3,83.8,68.9,83.5,67.9,83.2z"/>
		<path class="st5" d="M64.5,74.5c0.5-0.4,1.1-0.6,1.9-0.8c0.9-0.1,1.5-0.1,2.1,0.3c0.5,0.3,0.8,0.6,1.1,0.9c0.3,0.5,0.5,1.2,0.5,2
			c0,0.8-0.2,1.5-0.6,2c-0.3,0.4-0.7,0.7-1.2,0.8c-0.5,0.1-1.1,0.1-1.9-0.1c-0.1,0-0.2-0.1-0.2-0.3c0-0.1,0.1-0.1,0.1-0.2
			c0,0,0.1,0,0.1,0l0.1,0l0.2,0c0.1,0,0.3,0,0.4,0.1c0.3,0,0.6,0,0.9-0.1c0.8-0.2,1.3-0.7,1.5-1.5c0.2-0.8,0-1.4-0.4-1.9
			c-0.4-0.5-0.9-0.7-1.6-0.7c-0.7,0-1.4,0.3-2.2,0.8c-0.3,0.2-0.7,0.4-1,0.7L63.7,77l-0.4,0.3c-0.6,0.5-1.3,0.9-1.9,1.1
			c-0.8,0.3-1.5,0.4-2.1,0.2c-0.6-0.2-1-0.5-1.3-0.9c-0.2-0.4-0.3-0.8-0.3-1.3c0.1-1.1,0.7-1.7,1.6-1.8c0.1,0,0.1,0,0.1,0.1
			c0,0.1,0,0.2-0.2,0.3l0,0l-0.1,0L59,75.1c-0.1,0.1-0.3,0.2-0.4,0.3c-0.3,0.3-0.5,0.6-0.5,1.1c0,0.5,0.3,0.8,0.8,1
			c0.4,0.1,0.8,0.2,1.2,0C60.9,77.1,62.4,76.2,64.5,74.5z"/>
		<path class="st5" d="M57.8,66.9c0-0.2,0.1-0.2,0.2-0.2c0.1,0,0.2,0.1,0.2,0.3v2.2c0.7-0.1,2.4-0.1,5.2-0.1c2.5,0,4.2,0,5,0
			c0.5,0,0.9,0.1,1.1,0.2c0.2,0.1,0.3,0.2,0.3,0.5l0,0.3c0,0.1,0,0.2-0.1,0.3c-0.1,0.2-0.5,0.3-1,0.3c-0.6,0-1.9,0-4.1,0l-2.6,0
			c-0.9,0-1.6,0-2.1,0c-0.9,0-1.4,0-1.6,0v2.1c0,0.2-0.1,0.3-0.2,0.3c-0.1,0-0.2-0.1-0.2-0.2c0-0.1,0-0.5,0-1.2l0-3.4
			C57.8,67.4,57.8,67,57.8,66.9z"/>
		<path class="st5" d="M57.9,64.2c0.4-0.1,2.1-0.1,5-0.1c2.8,0,4.6,0,5.5,0c0.5,0,0.9,0.1,1,0.2c0.2,0.1,0.3,0.2,0.3,0.5l0,0.3
			c0,0.1,0,0.2-0.1,0.3c-0.1,0.2-0.5,0.3-1,0.3c-0.6,0-2,0-4.2,0h-2.6c-1,0-1.7,0-2.1,0c-0.9,0-1.4,0-1.6,0
			c-0.3-0.1-0.4-0.3-0.4-0.6C57.8,64.6,57.8,64.2,57.9,64.2z"/>
		<path class="st5" d="M66.1,58.1c0-0.1,0-0.2,0.1-0.2c0.7,0.1,1.3,0.3,1.9,0.5c1.2,0.4,1.8,0.9,1.9,1.6v0.2l0,0.2
			c0,0.2-0.1,0.4-0.2,0.6c-0.2,0.5-0.7,1-1.3,1.3c-0.6,0.3-1.4,0.4-2.4,0.5c-0.3,0-0.7,0-1.2,0h-0.6l-0.5,0c-0.5,0-1.1-0.1-1.8-0.2
			c-0.5-0.1-1-0.2-1.6-0.3c-1-0.2-1.7-0.6-2.2-1.2c-0.4-0.5-0.6-0.9-0.6-1.4c0-0.5,0.5-1,1.4-1.4c0.1,0,0.1,0.1,0.1,0.1l0,0.1
			c0,0,0,0.1,0,0.1c-0.8,0.3-1.3,0.7-1.3,1.1c0,0.6,0.9,0.9,2.7,1.2c1.1,0.1,2.1,0.2,3,0.2c1.6,0,2.9-0.1,4-0.4
			c1.1-0.3,1.7-0.6,1.7-1c0-0.3-0.5-0.7-1.4-1c-0.5-0.2-1.1-0.3-1.8-0.4C66.1,58.3,66.1,58.2,66.1,58.1z"/>
	</g>
	<g>
		<path class="st1" d="M127.2,74.8c0-0.8,0.9-1.4,2.6-1.8c0.9-0.2,2-0.3,3.5-0.3c1.7,0,3.2,0.2,4.5,0.7c1.2,0.4,1.8,1,1.9,1.6v0.2
			l0,0.2c0,0.2-0.1,0.4-0.2,0.6c-0.2,0.5-0.7,1-1.3,1.3c-0.6,0.3-1.4,0.5-2.4,0.5c-0.3,0-0.8,0-1.2,0H134l-0.5,0
			c-0.5,0-1.1-0.1-1.8-0.2c-0.5-0.1-1.1-0.2-1.7-0.3c-1-0.2-1.7-0.6-2.2-1.2C127.4,75.8,127.2,75.3,127.2,74.8z M137.7,73.8
			c-1.3-0.4-2.7-0.7-4.4-0.7c-1.5,0-2.6,0.1-3.5,0.2c-0.7,0.1-1.3,0.3-1.7,0.6c-0.4,0.3-0.6,0.5-0.6,0.8c0,0.6,0.9,1,2.7,1.2
			c1.1,0.2,2.1,0.2,3.1,0.2c1.6,0,3-0.1,4.1-0.4c1.1-0.3,1.7-0.6,1.7-1C139.1,74.5,138.7,74.1,137.7,73.8z"/>
		<path class="st1" d="M127.5,66c0-0.2,0.1-0.2,0.2-0.2c0.1,0,0.2,0.1,0.2,0.3v2.2c0.7-0.1,2.4-0.1,5.2-0.1c2.5,0,4.2,0,5,0
			c0.5,0,0.9,0.1,1.1,0.2c0.2,0.1,0.3,0.2,0.3,0.5l0,0.3c0,0.1,0,0.2-0.1,0.3c-0.1,0.2-0.5,0.3-1,0.3c-0.6,0-1.9,0-4.1,0l-2.6,0
			c-0.9,0-1.6,0-2.1,0c-0.9,0-1.4,0-1.6,0v2.1c0,0.2-0.1,0.3-0.2,0.3c-0.1,0-0.2-0.1-0.2-0.2c0-0.1,0-0.5,0-1.2l0-3.4
			C127.5,66.5,127.5,66.1,127.5,66z"/>
		<path class="st1" d="M127.4,59.1c0-0.1,0.1-0.2,0.3-0.2h11.7c0.2,0,0.3,0.1,0.3,0.2c0,0.1-0.1,0.2-0.2,0.2c-0.1,0-0.3,0-0.7,0
			h-0.5l-0.5,0c-0.1,0-0.3,0-0.6,0h-0.5l-0.5,0c-1,0-1.7,0-2,0h-0.2v2.1c0,0.2,0,0.5,0,0.9l0,0.9c3.1,0.1,4.9,0.1,5.4,0.2
			c0.1,0,0.1,0.1,0.2,0.2c0.1,0.2,0.1,0.4,0.1,0.7c0,0.5-1.6,0.7-4.9,0.5c-3.1-0.1-5.1-0.1-6.1-0.1c-0.6,0-1-0.1-1.1-0.2
			c-0.1-0.1-0.1-0.3-0.1-0.7c0-0.2,0.1-0.4,0.4-0.5c0.1,0,0.2-0.1,0.4-0.1l0.4-0.1c0.6-0.1,2.2-0.1,4.8-0.1c0-0.5,0-1.1,0-1.7
			c0-1.2,0-1.9,0-2.1c-0.9,0-2.1,0-3.7-0.1c-1.3,0-2,0-2.1,0C127.4,59.3,127.4,59.2,127.4,59.1z"/>
		<path class="st1" d="M127.9,51.6c0,0.2,0,0.6,0,1.3l0,0.4l0,0.4c0,0.3,0,0.5,0,0.6c0,0.1,0,0.2,0,0.3l0,0.4c0,0.3,0,0.6,0,0.9
			c0.4-0.1,0.9-0.1,1.5-0.1c1.2,0,2.5,0.1,3.9,0.1v-0.2v-0.3v-0.6c0-0.5,0-0.8,0-0.8c0-0.2,0.1-0.2,0.2-0.2c0.1,0,0.2,0.1,0.2,0.3
			v1.9c2.5,0.1,4,0.1,4.6,0.2c0.2,0,0.4,0,0.6,0.1c0-0.4,0-0.7,0-1.1c0-0.4,0-0.8,0-1c0-0.5,0-1-0.1-1.7c0-0.7,0-1.1,0-1.2
			c0-0.1,0.1-0.1,0.1-0.1c0.1,0,0.1,0,0.2,0c0.1,0,0.1,0.2,0.2,0.5c0,0.2,0,0.7,0,1.3c0,0.7,0,1.1,0,1.4v1.1c0,0.5,0,0.9,0,1.1
			c0,0.1,0,0.3-0.1,0.5c-0.1,0.2-0.2,0.4-0.5,0.5c-0.1,0-0.2,0.1-0.4,0.1l-0.4,0.1c-0.7,0.1-2.5,0.1-5.5-0.1c-2.9-0.1-4.5-0.2-5-0.3
			c-0.1,0-0.1-0.2-0.1-0.5c0,0,0-0.1,0-0.2v-0.3v-0.1c0-0.2,0-0.4,0-0.5l0-0.6c0-0.5,0-0.8,0-1.1c0-0.2,0-0.5,0-0.8
			c0-0.3,0-0.6,0-0.9c0-0.7,0-1.1,0-1.2c0-0.1,0.1-0.1,0.2-0.1c0.1,0,0.1,0,0.2,0l0.1,0l0.1,0.1c0,0.1,0.1,0.1,0.1,0.1
			S127.9,51.4,127.9,51.6z"/>
		<path class="st1" d="M134.4,46.9c0.1,0,0.1-0.1,0.2-0.1l0.3-0.1c0.2-0.1,0.4-0.2,0.6-0.3c0.6-0.3,1-0.5,1.2-0.6
			c0.4-0.2,0.9-0.5,1.5-0.8c0.6-0.3,1-0.5,1-0.5c0.1,0,0.1,0,0.2,0.1c0.1,0,0.1,0.1,0.1,0.2c0,0.1-0.1,0.2-0.4,0.4
			c-0.2,0.1-0.6,0.3-1.2,0.6c-0.6,0.3-1,0.5-1.3,0.6c-0.1,0.1-0.3,0.1-0.5,0.2l-0.3,0.2l-0.3,0.1c-0.5,0.3-0.8,0.4-1,0.5
			c0.1,0.2,0.2,0.5,0.3,0.7c0,0.2,0.1,0.4,0.1,0.5c2.9,0,4.4,0.1,4.5,0.2c0,0,0,0.1,0,0.3c0,0.1-0.1,0.3-0.2,0.5
			c-0.2,0.4-0.4,0.6-0.7,0.7h-5.2c-3.1,0-4.9,0-5.3,0.1c-0.3,0-0.6,0-0.7-0.1c0,0-0.1-0.1-0.1-0.2l0-0.2c0.3-0.9,0.6-1.3,1-1.3
			c0.3,0,0.9,0,1.8,0c-1-0.2-1.6-0.4-2-0.7c-0.6-0.5-0.8-1.1-0.7-1.8c0.1-0.2,0.2-0.5,0.5-0.7c0.2-0.2,0.5-0.4,0.7-0.5
			c0.2-0.1,0.4-0.1,0.7-0.2c0.4-0.1,0.8-0.1,1.2-0.1c1.1,0.1,2.1,0.4,2.8,1.1C133.8,46.1,134.1,46.5,134.4,46.9z M133.3,48.6l1.1,0
			c-0.1-0.1-0.1-0.3-0.2-0.4c-0.1-0.2-0.2-0.3-0.3-0.4c-0.2-0.4-0.5-0.6-0.9-0.8c-0.7-0.4-1.6-0.7-2.6-0.7c-1.1-0.1-1.9,0.2-2.3,0.6
			c-0.4,0.4,0.1,0.7,1.4,1.1c0.5,0.1,1.1,0.3,1.9,0.4C132,48.4,132.6,48.5,133.3,48.6z"/>
	</g>
</g>
<g>
	<g>
		
			<rect x="156.5" y="113.2" transform="matrix(-1 -1.224647e-16 1.224647e-16 -1 335.8887 278.0299)" class="st0" width="22.9" height="51.7"/>
		<polygon class="st0" points="167.9,181.6 188.4,162.4 147.5,162.4 		"/>
	</g>
	<text transform="matrix(1 0 0 1 19.2539 138.3636)"><tspan x="0" y="0" class="st6 st7 st8">60% reduction </tspan><tspan x="0" y="17.3" class="st6 st7 st8">in total waste for</tspan><tspan x="0" y="34.6" class="st6 st7 st8">an average town* </tspan></text>
</g>
</svg>
