<?xml version="1.0" encoding="utf-8"?>
<!-- Generator: Adobe Illustrator 26.3.1, SVG Export Plug-In . SVG Version: 6.00 Build 0)  -->
<svg version="1.1" id="Layer_1" xmlns="http://www.w3.org/2000/svg" xmlns:xlink="http://www.w3.org/1999/xlink" x="0px" y="0px"
	 viewBox="0 0 200 200" style="enable-background:new 0 0 200 200;" xml:space="preserve">
<style type="text/css">
	.st0{fill:#CCCCCC;}
	.st1{fill:#8DA538;}
	.st2{font-family:'Protipo-LightItalic';}
	.st3{font-size:17.4955px;}
</style>
<g>
	<g>
		<g>
			<path class="st0" d="M22.2,56.4c0,0-4.4,2.3-7.8,0.8c-3.4-1.5-13.1-3.4-13.5,0.1c-0.4,3.4,1.9,3.1-0.4,8.1c-2.3,5,2.8-0.2,5,2.8
				c2.2,3,3.9-4.6,9.1-1.7c5.2,2.9,9.3,7.8,9.2,10.1c-0.1,2.4,0.2,6.5,4.5,9.9s4.9,3.1,6.3,6.9c1.3,3.8,9,2.6,10.9,5.3
				c1.9,2.7,4.2,3,4.8,2.9c0.5-0.1-3.1,3.4-1.2,7.6c1.9,4.1,5.4,4.8,5.6,7c0.2,2.2-3.4,15.3-3.3,19.1c0.2,3.7,2.6,6.4,5.9,5.1
				c0,0-2.3-1.8-1.9-3.6c0.4-1.9,3-9.2,5.7-9.8c2.7-0.6,4.6-1.2,5.3-4.9c0.7-3.7,2.6-2.1,3.9-3.1c1.3-1,2.2-3.5,1.4-5.5
				c-0.8-1.9,5.5-0.7,2.4-5.1c-3.1-4.4-3.3,0.8-9.4-5.6c-6.2-6.4-11.7-3.9-14.1-2.6c-2.4,1.3-3.9-1.9-3.4-3.6c0,0,0.4-1.4-3.3-0.5
				c0,0,0-1,0.8-1.4c0.8-0.4,0-3.4-1.4-1.7c-1.4,1.8-2.2,2-3.3,0.5c-1.1-1.5-1.1-5.8,2.3-5.7c3.4,0.1,4.7-0.9,5.7,2.4
				c1.1,3.3,1.3-3.1,1.3-4c0-0.9,3.1-0.9,3.4-4.7c0.4-3.8,6.7-2.1,6.7-4.4c0-2.3-3-0.9-0.7-2.9c2.3-2,0.9,1.7,3.1,0.4
				c2.2-1.2,0.7-4.9-1.3-5.4c-2-0.5-1.9-4.5-3.7-1.8c-1.8,2.7-1.9-3.3-3.6-3.1c-1.7,0.2-1.7,7.9-3.4,8c-1.7,0.1-3.2-0.6-2.6-2.1
				c0.6-1.5-5.8-0.8-6.4-3.4c-0.5-2.6,1.8-6,6.5-3.6c4.8,2.4-2.6-5.5,1.4-6.6c4.1-1.1,2.6,4.1,4.2,5.4c1.6,1.2,4.1,3.1,5.2-0.1
				c1.1-3.2-1.9-4.1-5.1-6.9c-3.2-2.7-5-6.4-1.9-7.5c3.2-1.1,8.2-5.3,7.3-5.9c-0.9-0.6-12.8-2.2-17,2.6c-4.2,4.8,3,1.6,2.6,5.7
				c-0.4,4.1,1.4,11.4-2.2,8.2c-3.6-3.2-7.1,5-11,1.4C27,56,23.8,55.4,22.2,56.4z"/>
			<path class="st0" d="M57,46c0,0-5.8,1.1-3.3,3.5c2.6,2.4,6.4-0.9,8.3,2.5c1.9,3.4,1.2,14.1,7.3,14.3c6.1,0.2-3.7-2.6,5-6.1
				c8.7-3.5,8.1-3.7,8.1-7c0-3.3-0.7-7.1,2.1-8.3c2.8-1.1,2.9-3-2.1-2.6c-5,0.4-2.2-1.1-7.5-1.6c-5.3-0.5-7.5,2.9-11.8,1.2
				C58.9,40.3,59.8,46.1,57,46z"/>
			<path class="st0" d="M33.5,52.9c0,0-1.9,2.4-4.9,0.4c-3-1.9-6.9-1.9-5.5-0.2c1.4,1.8,5,2.4,5.6,3.3c0.5,0.9,4.4,4.7,6.2,2.5
				C36.7,56.7,35.9,50.4,33.5,52.9z"/>
			<path class="st0" d="M30.7,49.8c0,0-1.9,0.2-2.5-1.1c-0.6-1.3-4,0.1-1.8,2.4c2.2,2.3,7.7,1.2,7.7,0.2s-2.2-2.1-1.3-3.4
				c0.9-1.2-2-2.4-2.1-0.5C30.6,49.2,32.2,49.6,30.7,49.8z"/>
			<path class="st0" d="M38.1,47c0,0-2.6-1.9-3.1-0.8c-0.5,1.1,0.7,2.1,1.9,2C38.1,48.1,38.8,47.4,38.1,47z"/>
			<path class="st0" d="M39.2,50.3c0,0-1.9-1.2-3.6-0.5c-1.6,0.7,1.4,0.7,1.6,1.8c0.2,1.1,1.4,0.7,2.2,0.4S39.8,50.2,39.2,50.3z"/>
			<path class="st0" d="M42.5,49c0,0-2.3-1.8-2.6-0.4c-0.3,1.4,2.1,2.9,2.8,2.6C43.3,50.9,43.3,49.3,42.5,49z"/>
			<path class="st0" d="M42.8,53.6c0,0-0.1-2.2-2.2-0.8c-2.1,1.4-0.6,0.4-3.3,0.1c-2.7-0.2,1.5,3.1,2.1,2.6s1.8,1.8,2.6,1.1
				C42.8,56.2,43.1,53.9,42.8,53.6z"/>
			<path class="st0" d="M52.3,92.9c0,0-1.9,0.1-2.3-0.9c-0.4-0.9-3.6-0.2-3.6,0.4c0,0.5,2,0.3,2.6,0.7c0.6,0.5,3,1.6,3.4,1.1
				C52.9,93.7,53.9,93.5,52.3,92.9z"/>
			<path class="st0" d="M57.6,94.2c0,0-3-1.3-3.4,0.2c-0.4,1.5,1.8,0.6,2.7,1.1C57.8,95.9,59.5,94.6,57.6,94.2z"/>
			<path class="st0" d="M122.6,113.1c0,0-0.6,7.4-2.1,6.9c-1.5-0.5-2.2-1.6-1.9-3.9c0.3-2.3,1.5-0.4,2.6-3.1
				C122.3,110.4,122.6,113.1,122.6,113.1z"/>
			<g>
				<path class="st0" d="M194.6,57.9c-3.8-0.4-10.4,0.6-12-1.1s-9.3-3.4-11.7-1.7c-2.5,1.7-5.6,0.3-4.5-1.3c1.1-1.6-9.3,1.1-9.4-0.6
					s1.7-4.3-4.9-4.8c-6.6-0.4-2,1.5-7.9,3.1c-5.9,1.6-8.6,4.5-9.2,2.4c-0.6-2.1-4.9,2.9-3.6,4.2c1.2,1.3-3.6-2.2-9.4,0.2
					c-5.8,2.4-3.1,0.1-8.7-1.3c-5.6-1.4-7.3-1.6-9.1,1.1s-4.7,6.4-6.3,5.7c-1.6-0.6-2.8,5.4,1.7,4.6c4.5-0.8,2.7,2.5,5.1,0
					c2.4-2.5-3.1-4.8,2.5-6.7c0,0-1.6,4,0.5,5.1s-3.4,4.9-4.7,3.9c-1.4-1.1-6,1.1-6.3,1.7c-0.3,0.6-2.8-4.9-4.2-4.9
					c-1.4,0-3.1,4.2,0.3,6.8c3.4,2.6-0.6,4.8-1.2,4.6c-0.6-0.1-2.7,1.1-1.7,3.1c1,2.1,4.4,1.4,5.1-0.5c0.8-1.8,3.2-3.7,4.2-2.9
					c1,0.8,3.9,0.8,3.4,2.4c-0.5,1.6,1.2,2.3,1.9,0.6s-4.5-4.6-2.9-4.7c1.6-0.1,2.6,1.1,3.1,2c0.5,0.9,2.3,5.2,3.1,4.6
					c0.8-0.6,0.8-2.2,1.6-1.7c0.8,0.5,0,2.9,1.9,2.6c1.9-0.3,2.2,3.2-2.8,1.4c0,0-3,2.1-4.6,1.3c-1.6-0.8-3.1-4.9-6-4.1
					c-2.9,0.8-7.1,0.5-8.2,2.6c-1.1,2.1-1.3,3.8-3.3,3.4c-1.9-0.4-2.9,9.5,1.4,12.3c4.3,2.8,6.6-0.7,9.4,0.5c2.8,1.2,0.9,5,3.3,5
					c2.4,0-0.5,7.4,1.5,10.2c2,2.8,0.4,10.5,4.5,9c4.1-1.5,8-6.3,7.4-9.7c-0.6-3.4,4.4,0.9,2.9-5.5c-1.5-6.4,3.7-6.1,5.5-10.5
					c1.8-4.4-2.2-0.1-4.1-1.9c-1.9-1.8-5.9-7.8-5.2-10.1c0.7-2.2,5.1,6.7,5.5,9c0.4,2.3,9.4-3.4,9.6-5c0.2-1.6-6.2-1.9-6.4-4.2
					c-0.2-2.4,2.4,2,5.2,2.3c2.8,0.3,5.5-0.8,7.1,1.9c1.6,2.6,0.5-1.1,1.7,1c1.1,2.1,0.6,7.3,2.2,7.3s0.5-4.7,3.9-6.4s5-1.8,5.6,0.8
					s3.3,1.2,4,3.1c0.7,1.9,5,2.3,4.1-1.8c-1-4.1-1.3-4.7,0.7-3.4c2,1.2,6.1-1.8,6.1-5.6c0-3.9-1.3-6.9,1.1-6.7
					c2.5,0.2,2.6,4.6,6.6-1.1c4-5.7,4.7-6.2,2.4-8.2c-2.3-2-1.9-1.1,0.8-3.4c2.6-2.3,6.4,0.9,9.1-2.2c2.6-3.1,3.4,1.4,0.3,2.5
					c-3.2,1.1-1,9.5,1.7,3.5c2.6-6,3.3-6.1,5.4-6c2.1,0.1,6.8-0.1,4.6-3.6c-2.2-3.5,4.2,1.6,5.6,0.5C201,61.7,198.4,58.2,194.6,57.9
					z M116.2,80.3c-1-0.6-3.5,0-5.1,0.4c-1.6,0.4-1.4-1.5-0.5-3.1c0.8-1.6,3.1,0.1,3.1,0.1c1.8,0.7,2.4-0.6,3.4,0.8
					C117.9,79.9,117.2,80.9,116.2,80.3z M121.6,82.7c0.4-0.6,0.3-2.9-0.4-4.5c-0.7-1.6,2.1-1.6,2.1-1.6c1.7,0.5,0.8,0.8-0.4,1.5
					c-1.1,0.8,1.6,1.4,1.8,4.1C124.8,84.8,121.2,83.3,121.6,82.7z"/>
			</g>
			<path class="st0" d="M149.6,99.5c0,0-0.4,0.1-0.2,3.2s-0.3-1.2-1.6-0.8c-1.4,0.4,3.6,6.8,5.6,7.8s9.5,2.1,10.6,1.3
				c1.1-0.8-0.5-1.1-4.8-1.2s-6.2-2.1-6.1-3.4C153.2,105,151.3,99.2,149.6,99.5z"/>
			<path class="st0" d="M158.2,102.2c0,0-4.3,2.3-3.3,3.3c1,1,2.4,3.1,3.9,2.4c1.5-0.7,0.5-2.8,1.5-3.9
				C161.3,102.7,160.7,99.9,158.2,102.2z"/>
			<path class="st0" d="M161.9,94.1c0,0-1.8,2.4,0.5,6.5c2.4,4.1,3.1-0.2,2.9-1.3c-0.2-1.1-2.5-1.7-1.9-2.9
				C163.9,95.3,163.4,92.8,161.9,94.1z"/>
			<path class="st0" d="M164.3,113.2c0,0-2.9,4.6-5.4,3.7c-2.5-0.9-1.7,4.6-1.1,5.7c0.6,1.1-0.8,4.6,2.2,4.1
				c2.9-0.6,5.7-3.9,8.2-2.8c2.5,1.1,3.5,5.6,7.9,4.7c4.5-0.9,3.2-5,4.5-6.6s-4.6-5.3-4.6-6.4c0-1.1-0.4-4.3-1.9-4.3
				c-1.5,0-0.3,5.5-1.7,4c-1.4-1.5-2.6-1.6-1.8-3.6c0.8-1.9-3.5-0.9-3.4,0.1C167.2,112.8,165.1,112.1,164.3,113.2z"/>
			<path class="st0" d="M171.6,105.9c0,0-1.8,1.7-2,0.7c-0.2-1-2.8-2.1-2.9-1.3c-0.1,0.8,1.1,3.6,3.1,3.1c1.9-0.5,1.1,1.7,3.1,1.8
				c1.9,0.1,1.9-1.1,3.1-0.1c1.2,1,2.7,2.4,2,0.4c-0.7-2.1,1.5-1.7,1.8-2c0.3-0.3-0.4-1.8-2.1-0.8c-1.6,1-2.5,0.1-3.1-0.5
				C174,106.6,172.5,105,171.6,105.9z"/>
			<path class="st0" d="M164,104.1c0,0-3.8-0.6-2.9,2.6c0.9,3.2,2.8,1.8,2.5-0.1C163.4,104.8,166.7,105,164,104.1z"/>
			<path class="st0" d="M177.5,130.4c0,0-1.8-2.1-2.8,0.1c-1.1,2.1,1.6,2.1,2.1,1.7C177.2,131.9,177.7,131.2,177.5,130.4z"/>
			<path class="st0" d="M193.8,127.4c0,0-2.5-3.1-2.6-1.5c-0.1,1.6,1.2,3.4-1.1,4.8s-4,1.9-2.9,3c1.1,1.1,2.2,1.1,4.6-2
				C194.3,128.6,194.5,128.9,193.8,127.4z"/>
		</g>
		<g>
			<path class="st1" d="M109.7,87.5c-0.1-0.2-0.3-0.2-0.4,0c-1.5,2.3-9.9,15.9,0.1,16C119.3,103.6,111.1,89.8,109.7,87.5z"/>
			<path class="st1" d="M54.2,45.7c-0.1-0.2-0.3-0.2-0.4,0c-1.5,2.3-9.9,15.9,0.1,16C63.8,61.8,55.7,48,54.2,45.7z"/>
			<path class="st1" d="M97.5,61.5c-0.1-0.2-0.3-0.2-0.4,0c-1.5,2.3-9.9,15.9,0.1,16C107.1,77.5,99,63.8,97.5,61.5z"/>
			<path class="st1" d="M34.4,66.6c-0.1-0.2-0.3-0.2-0.4,0c-1.5,2.3-9.9,15.9,0.1,16C44,82.7,35.8,68.9,34.4,66.6z"/>
			<path class="st1" d="M166.3,62.4c-0.1-0.2-0.3-0.2-0.4,0c-1.5,2.3-9.9,15.9,0.1,16C175.9,78.5,167.7,64.8,166.3,62.4z"/>
			<path class="st1" d="M164.2,105.2c-0.1-0.2-0.3-0.2-0.4,0c-1.5,2.3-9.9,15.9,0.1,16C173.8,121.3,165.7,107.5,164.2,105.2z"/>
			<path class="st1" d="M135.5,55.4c-0.1-0.2-0.3-0.2-0.4,0c-1.5,2.3-9.9,15.9,0.1,16C145.1,71.5,136.9,57.7,135.5,55.4z"/>
			<path class="st1" d="M66.9,98.1c-0.1-0.2-0.3-0.2-0.4,0c-1.5,2.3-9.9,15.9,0.1,16C76.5,114.2,68.3,100.5,66.9,98.1z"/>
		</g>
	</g>
	<text transform="matrix(0.983 0 0 1 56.3051 35.9913)"><tspan x="0" y="0" class="st2 st3">60 locations</tspan><tspan x="0" y="126" class="st2 st3">OUR PLANET</tspan></text>
</g>
</svg>
