<?xml version="1.0" encoding="utf-8"?>
<!-- Generator: Adobe Illustrator 25.2.3, SVG Export Plug-In . SVG Version: 6.00 Build 0)  -->
<svg version="1.1" id="Layer_1" xmlns="http://www.w3.org/2000/svg" xmlns:xlink="http://www.w3.org/1999/xlink" x="0px" y="0px"
	 viewBox="0 0 1315.3 1315.3" style="enable-background:new 0 0 1315.3 1315.3;" xml:space="preserve">
<style type="text/css">
	.st0{fill:#4EAE33;stroke:#4EAE33;stroke-width:20;stroke-miterlimit:10;}
	.st1{fill:#E1EABF;stroke:#E1EABF;stroke-width:20;stroke-miterlimit:10;}
	.st2{fill:#E1EABF;stroke:#E1EABF;stroke-width:5;stroke-miterlimit:10;}
</style>
<rect x="-2900.6" y="-144" class="st0" width="1315.3" height="1315.3"/>
<polygon class="st1" points="1097.4,482.2 1152.2,412.3 1040.5,429.8 "/>
<path class="st2" d="M1126,447.2c-4.6-40.2-24.6-171-129.4-258.4C850.4,67,660.3,130.5,612.4,146.5
	c-126.5,42.2-203.2,130.2-229.4,161c-42.8,50.2-69.6,99.6-86,135.5l37.5,4.2c15.3-31.5,40.5-75,82.1-121.7
	c33.4-37.5,68.3-76.7,132.9-110.8c36.1-19,106.9-56.3,207.1-53.9c22.6,0.6,95.1,4.3,164.1,41.9c66.1,36,94.8,84.3,121.1,128.7
	c18.3,30.9,28.9,58.2,35.2,77.8l20.1,30.1L1126,447.2"/>
<polygon class="st1" points="368.4,793.6 313.7,863.6 425.4,846.1 "/>
<path class="st2" d="M345.3,828.6c4.2,41.2,22.3,175.5,117.2,265.1c132.4,125,304.7,59.8,348,43.5
	c114.6-43.3,184.1-133.6,207.9-165.1c38.8-51.5,63-102.2,77.9-139.1l-34-4.3c-13.8,32.4-36.7,76.9-74.3,124.9
	c-30.3,38.5-61.9,78.7-120.4,113.6c-32.7,19.5-96.8,57.8-187.6,55.3c-20.5-0.6-86.1-4.4-148.7-43c-59.9-36.9-85.9-86.5-109.7-132.1
	c-16.6-31.7-26.2-59.7-31.9-79.8l-18.2-30.9L345.3,828.6"/>
</svg>
