<?xml version="1.0" encoding="utf-8"?>
<!-- Generator: Adobe Illustrator 25.2.3, SVG Export Plug-In . SVG Version: 6.00 Build 0)  -->
<svg version="1.1" id="Layer_1" xmlns="http://www.w3.org/2000/svg" xmlns:xlink="http://www.w3.org/1999/xlink" x="0px" y="0px"
	 viewBox="0 0 1315.3 1315.3" style="enable-background:new 0 0 1315.3 1315.3;" xml:space="preserve">
<style type="text/css">
	.st0{fill:#4EAE33;stroke:#4EAE33;stroke-width:20;stroke-miterlimit:10;}
	.st1{fill:#698442;}
	.st2{fill:#8DB942;}
</style>
<rect x="-2900.6" y="-144" class="st0" width="1315.3" height="1315.3"/>
<g>
	<path class="st1" d="M692.8,489.3l148.7,268.8l-119.7,80.2l523.3,189.5l67.8-580.2l-112.6,55.5c0,0-85.8-159.9-187.1-194
		C928.9,319.6,811.8,361.2,692.8,489.3z"/>
	<path class="st1" d="M878.2,289.6c0,0-7.8-0.2-21.6-0.7c9,0.3,17.8,0.8,26.4,1.2C878.3,289.6,878.2,289.6,878.2,289.6z"/>
	<path class="st2" d="M794.6,287.5c26.1,0.4,47.4,1,62,1.3C836.6,288.2,815.9,287.7,794.6,287.5z"/>
	<path class="st2" d="M989.5,303.5c-72.2-9.1-97.5-12.2-106.4-13.3c-8.6-0.4-17.5-0.9-26.4-1.2c-14.6-0.4-35.9-0.9-62-1.3
		c-197.5-1.3-436.8,22.5-521.1,31.7c-15.1,1.6-30.1,8.5-45,19.3c-100,72.7-192,326.1-219.4,407.1c-4.5,10.2-6.9,15.9-6.9,15.9
		l1.4,0.7L425.7,972c12.1-34.5,24.5-67.4,37-98.4c71.7-176.7,151.3-299.4,230.2-384.2c119-128.1,236.1-169.7,320.5-180.3
		C1005.4,306.4,997.5,304.5,989.5,303.5z"/>
</g>
</svg>
