<?xml version="1.0" encoding="utf-8"?>
<!-- Generator: Adobe Illustrator 25.2.3, SVG Export Plug-In . SVG Version: 6.00 Build 0)  -->
<svg version="1.1" id="Layer_1" xmlns="http://www.w3.org/2000/svg" xmlns:xlink="http://www.w3.org/1999/xlink" x="0px" y="0px"
	 viewBox="0 0 1315.3 1315.3" style="enable-background:new 0 0 1315.3 1315.3;" xml:space="preserve">
<style type="text/css">
	.st0{fill:#4EAE33;stroke:#4EAE33;stroke-width:20;stroke-miterlimit:10;}
	.st1{fill:#698442;}
	.st2{fill:#8DB942;}
</style>
<rect x="-2900.6" y="-144" class="st0" width="1315.3" height="1315.3"/>
<g>
	<path class="st1" d="M677.5,115.6l83.9,151.7l-67.5,45.2l295.2,106.9l38.3-327.3l-63.5,31.3c0,0-48.4-90.2-105.5-109.5
		C810.7,19.9,744.6,43.4,677.5,115.6z"/>
	<path class="st1" d="M782.1,3c0,0-4.4-0.1-12.2-0.4c5.1,0.2,10,0.4,14.9,0.7C782.1,3,782.1,3,782.1,3z"/>
	<path class="st2" d="M734.9,1.8c14.7,0.2,26.7,0.6,35,0.7C758.6,2.2,746.9,1.9,734.9,1.8z"/>
	<path class="st2" d="M844.9,10.8c-40.7-5.1-55-6.9-60-7.5C780,3,775,2.8,770,2.6c-8.3-0.2-20.3-0.5-35-0.7
		C623.5,1.1,488.5,14.6,441,19.7c-8.5,0.9-17,4.8-25.4,10.9c-56.4,41-108.3,183.9-123.8,229.7c-2.5,5.7-3.9,9-3.9,9l0.8,0.4
		l238,118.3c6.8-19.5,13.8-38,20.9-55.5c40.5-99.7,85.4-168.9,129.9-216.7C744.7,43.4,810.7,20,858.4,14
		C853.9,12.5,849.4,11.4,844.9,10.8z"/>
</g>
<g>
	<path class="st1" d="M657.7,1200.9l-83.9-151.7l67.5-45.2L346.1,897.1l-38.3,327.3l63.5-31.3c0,0,48.4,90.2,105.5,109.5
		C524.5,1296.6,590.5,1273.2,657.7,1200.9z"/>
	<path class="st1" d="M553,1313.6c0,0,4.4,0.1,12.2,0.4c-5.1-0.2-10-0.4-14.9-0.7C553,1313.6,553,1313.6,553,1313.6z"/>
	<path class="st2" d="M600.2,1314.8c-14.7-0.2-26.7-0.6-35-0.7C576.5,1314.4,588.2,1314.6,600.2,1314.8z"/>
	<path class="st2" d="M490.3,1305.8c40.7,5.1,55,6.9,60,7.5c4.9,0.2,9.9,0.5,14.9,0.7c8.3,0.2,20.3,0.5,35,0.7
		c111.4,0.7,246.4-12.7,294-17.9c8.5-0.9,17-4.8,25.4-10.9c56.4-41,108.3-183.9,123.8-229.7c2.5-5.7,3.9-9,3.9-9l-0.8-0.4
		l-238-118.3c-6.8,19.5-13.8,38-20.9,55.5c-40.5,99.7-85.4,168.9-129.9,216.7c-67.1,72.3-133.2,95.7-180.8,101.7
		C481.3,1304.1,485.8,1305.2,490.3,1305.8z"/>
</g>
</svg>
