<?xml version="1.0" encoding="utf-8"?>
<!-- Generator: Adobe Illustrator 25.2.3, SVG Export Plug-In . SVG Version: 6.00 Build 0)  -->
<svg version="1.1" id="Layer_1" xmlns="http://www.w3.org/2000/svg" xmlns:xlink="http://www.w3.org/1999/xlink" x="0px" y="0px"
	 viewBox="0 0 1315.3 1315.3" style="enable-background:new 0 0 1315.3 1315.3;" xml:space="preserve">
<style type="text/css">
	.st0{fill:#4EAE33;stroke:#4EAE33;stroke-width:20;stroke-miterlimit:10;}
	.st1{fill:#3AAA35;stroke:#3AAA35;stroke-width:5;stroke-miterlimit:10;}
	.st2{font-family:'BodoniMT';}
	.st3{font-size:324.7184px;}
	.st4{stroke:#000000;stroke-width:5;stroke-miterlimit:10;}
	.st5{fill:none;stroke:#4EAE33;stroke-width:13;stroke-miterlimit:10;}
</style>
<polygon class="st0" points="1016.1,475.5 1080.5,374 949.2,399.4 "/>
<path class="st1" d="M1014.8,424.8c-2.9-48.2-15.7-205-82.4-309.7c-93.1-146-214.2-69.9-244.7-50.8
	c-80.6,50.6-129.4,156-146.1,192.9c-27.2,60.2-44.3,119.4-54.8,162.5l23.9,5.1c9.7-37.8,25.8-89.9,52.3-145.9
	c21.3-45,43.5-92,84.6-132.7c23-22.8,68.1-67.5,131.9-64.6c14.4,0.7,60.5,5.2,104.5,50.2c42.1,43.1,60.4,101.1,77.1,154.3
	c11.7,37,18.4,69.7,22.4,93.3l12.8,36.1L1014.8,424.8"/>
<polygon class="st1" points="504.9,683.6 440.5,785.1 571.8,759.7 "/>
<path class="st1" d="M486.9,734.3c2.9,59.5,15.7,253.2,82.4,382.5c93.1,180.3,214.2,86.3,244.7,62.7
	c80.6-62.5,129.4-192.7,146.1-238.3c27.2-74.4,44.3-147.4,54.8-200.6l-23.9-6.3c-9.7,46.7-25.8,111-52.3,180.2
	c-21.3,55.5-43.5,113.6-84.6,164c-23,28.2-68.1,83.4-131.9,79.8c-14.4-0.8-60.5-6.4-104.5-62c-42.1-53.3-60.4-124.8-77.1-190.5
	c-11.7-45.7-18.4-86.1-22.4-115.2l-12.8-44.5L486.9,734.3"/>
<g>
	<text transform="matrix(0.63 0 0 1 1.220703e-04 645.6911)"><tspan x="0" y="0" class="st1 st2 st3">Green</tspan><tspan x="804.8" y="0" class="st4 st2 st3">cycle</tspan><tspan x="1484.5" y="0" class="st1 st2 st3">.org </tspan></text>
</g>
<rect y="0" class="st5" width="1315.3" height="1315.3"/>
</svg>
