<?xml version="1.0" encoding="utf-8"?>
<!-- Generator: Adobe Illustrator 24.3.0, SVG Export Plug-In . SVG Version: 6.00 Build 0)  -->
<svg version="1.1" id="Layer_1" xmlns="http://www.w3.org/2000/svg" xmlns:xlink="http://www.w3.org/1999/xlink" x="0px" y="0px"
	 viewBox="0 0 841.9 841.9" style="enable-background:new 0 0 841.9 841.9;" xml:space="preserve">
<style type="text/css">
	.st0{fill:#414042;}
	.st1{fill:#F0FFDD;}
	.st2{fill:none;}
	.st3{fill:#333333;stroke:#000000;stroke-width:4;stroke-miterlimit:10;}
	.st4{fill:#3E8971;}
	.st5{fill:#8EC7A0;}
	.st6{fill:#FFFC13;stroke:#000000;stroke-miterlimit:10;}
	.st7{fill:#FBD315;stroke:#000000;stroke-miterlimit:10;}
	.st8{fill:#FFFE67;stroke:#000000;stroke-miterlimit:10;}
	.st9{fill:#FCEE21;stroke:#000000;stroke-miterlimit:10;}
	.st10{fill:#E2BA05;}
	.st11{fill:#3F2E07;stroke:#000000;stroke-miterlimit:10;}
	.st12{fill:url(#SVGID_1_);}
	.st13{fill:none;stroke:#FFFFFF;stroke-width:0.5;stroke-miterlimit:10;}
	.st14{fill:none;stroke:#FFFFFF;stroke-miterlimit:10;}
	.st15{fill:url(#SVGID_2_);}
	.st16{fill:url(#SVGID_3_);}
	.st17{fill:url(#SVGID_4_);}
	.st18{fill:url(#SVGID_5_);}
	.st19{fill:url(#SVGID_6_);}
</style>
<image style="display:none;overflow:visible;enable-background:new    ;" width="450" height="950" xlink:href="../../../../Downloads/254137875_571096570663065_1327983642435274809_n.jpg"  transform="matrix(1 0 0 1 267.25 -76.125)">
</image>
<path d="M485,18.6"/>
<g>
	<g>
		<path class="st0" d="M-537,208.4c3.2,0,3.2-5,0-5S-540.2,208.4-537,208.4L-537,208.4z"/>
	</g>
</g>
<g>
	<g>
		<path class="st0" d="M-537,208.4c3.2,0,3.2-5,0-5S-540.2,208.4-537,208.4L-537,208.4z"/>
	</g>
</g>
<path class="st1" d="M542.5,1119.4"/>
<path class="st2" d="M485.7,17"/>
<path class="st3" d="M648.1,717"/>
<path class="st4" d="M368.5,198.1c-0.5-2-0.5-4.4,1-5.9c1.4-1.5,3.9-1.7,5.8-2.6c1.2-0.6,2.3-1.4,3.4-2.3c3.1-2.1,6.8-3.2,10.4-4.3
	c1.7-0.5,3.7-0.9,5,0.3c0.6,0.6,0.9,1.3,1.2,2.1c1.7,4.1,3.3,8.4,2.4,12.6c-0.6,2.5-1.9,4.8-4,6.3c-4.2,3.3-8.6,2.8-13.5,2.3
	c-2.6-0.3-5,0.4-7.3-1C370.6,204.3,369.1,200.5,368.5,198.1z"/>
<polygon class="st5" points="335.4,157.5 344,133.7 371.1,154.2 355.2,163 347.6,171.7 332.3,161.2 "/>
<polygon class="st5" points="366.2,265.2 390,282.5 402.7,245.2 381.7,247.1 368.6,243.6 360.9,263.8 "/>
<path class="st6" d="M378.2,270.5c1.5,6.7,2.7,14.7-2,19.6c-0.7,0.7-1.4,1.3-1.8,2.1c-1.7,3.6,3.7,6.9,3.5,10.9
	c-0.1,3.3-3.8,5.1-5.5,8c-1.5,2.6-1.2,6-2.7,8.6c-1.7,2.7-5.5,3.9-7.2,6.6c-1.9,3-0.9,6.8-0.1,10.3c1.6,7.1,2,14.4,1.2,21.6
	c-0.5,4.1-0.8,9.3,2.8,11.4c3.1,1.7,6.9-0.2,9.8-2c4.1-2.5,8.2-5.2,10.7-9.2c0.9-1.5,1.6-3.2,2.7-4.6c1.3-1.8,3.4-3.2,4.3-5.3
	c0.8-1.8,0.7-3.7,1-5.6c0.4-2.1,1.5-4,2.3-6c2.6-6.1,3.2-13,4.6-19.6c1.4-6.6,4.1-13.3,9.7-17.1l37.9-48.9l0.2-5.5l-13.4-12.1
	c6.4-2.1,11.9-8.2,16.3-13.3c3.1-3.4,6.1-6.9,9.2-10.3c2.8-3.1,5.6-6.3,7.4-10.1c3.4-7.3,2.2-15.8,1-23.8c-1-6-2.5-13-7.8-15.9
	c-3.6-1.9-8.5-1.4-11.4,1.4c-4,3.7-4.6,10-8.9,13.3c-1.4,1.1-3.2,1.8-4.4,3.1c-1.9,2.1-2.3,5.3-3.6,7.7c-2.6,5.1-8.7,7.1-12.1,11.7
	c-2.2,3-3.1,6.8-5.7,9.4c-2.7,2.7-7,3.9-8.7,7.3c-1.3,2.8-0.6,6.1-1.3,9.1c-1.4,6.2-8.3,9-13.6,12.4c-7.5,4.9-13.1,12.6-15.4,21.3
	C375.7,262.9,373.9,266.2,378.2,270.5z"/>
<path class="st7" d="M513.6,337.8c1.6-2.4,3.8-4.1,6-6s4.3-3.9,5.4-6.4c1-2.6,0.9-6-1.3-7.9c-0.8-0.8-2-1.3-2.6-2.3
	c-1-1.8,0.5-3.9,2-5.3c3.5-3,7.9-4.9,11.6-7.6c2.5-1.8,4.6-4.1,6.7-6.4c0.4-0.4,0.9-1,1.1-1.6c0.4-1.1-0.1-2.3-0.6-3.4
	c-2.2,1.8-5.4,2.1-8.1,0.9c2.8-3,6.1-5.6,9.7-7.6c-1.5-1.2-2.1-3.4-1.8-5.3c0.3-1.9,1.3-3.7,2.5-5.2c1.5-2,3.5-4,3.3-6.4
	c-0.1-1.1-0.5-2.1-0.5-3.2c-0.1-1.1,0.6-2.4,1.7-2.3c-0.3-0.9-1.6-0.7-2.5-0.5c-4.6,1.5-9.3,2.8-14,3.8c-6.2,1.3-12.6,2.3-18.8,0.9
	c-0.4,0-0.8-0.2-1.2-0.1c-1.2,0.1-1.8,1.5-2.4,2.5c-2.5,4.9-6.9,8.4-10.9,12.3c-6.7,6.5-12.4,14.1-16.6,22.4
	c-0.9,1.8-1.8,3.6-1.6,5.6c0.3,2.4,2.2,4.4,3.3,6.6c0.9,1.8,1.3,3.8,1.9,5.8c0.6,1.8,1.5,3.5,2.5,5.1c3.9,6.4,9.8,11.4,13.8,17.8
	c0.9,1.6,1.9,3.3,3.6,4.1c1.6,0.9,3.7,0.5,5.4-0.4c2-1.1,4.1-3,6-4.3C516.2,341.6,514.8,339.7,513.6,337.8z"/>
<path class="st8" d="M514.1,348.6l-7.5,5l-6.1-1.6l-8.4-16.6l-6.9-5.1l-26.5-15.1l-24-13.3l-21.1-7.2l4.8-7.4l6.8-19.6l-2.9-6.1
	l3.5-15.1l12.9,2.2l42.9,5.5l32.4,3.1l25.4,0.1l4.3-2.5c-4.6,7.3-9.4,15-14,22.2c-3.5,5.6-7.1,11.2-11.5,16.1
	c-1.2,1.3-2.6,2.6-3.1,4.4c-0.8,2.5,0.2,5.2-0.5,7.8c-1.1,3.8-5.8,6-6,9.9c-0.2,2.5,1.6,4.6,2.7,6.8c1.2,2.2,1.6,5.4-0.4,6.8
	c-2.2,1.5-6.3,0.2-7.1,2.8c-0.2,0.7-0.1,1.4,0.1,2c1.1,4.1,2.9,8.1,5.5,11.6c-0.7,0.9-0.6,4.4,0.4,4.8
	C511.1,349.7,513.2,349.1,514.1,348.6z"/>
<path class="st6" d="M337.4,134.2c-2.1-5.5-5.2-11.8-10.9-13c-0.8-0.2-1.6-0.2-2.3-0.6c-2.9-1.7-0.7-6.7-2.8-9.5
	c-1.6-2.3-5.2-1.8-7.8-3c-2.4-1.1-3.7-3.7-6.1-4.8c-2.6-1.1-5.8-0.1-8.3-1.2c-2.8-1.2-3.9-4.4-5.1-7.3c-2.3-5.8-5.5-11.2-9.6-15.9
	c-2.3-2.7-5.1-6.2-3.5-9.4c1.4-2.7,5-3.2,8-3.3c4.1-0.2,8.4-0.3,12.1,1.4c1.4,0.7,2.7,1.5,4.1,2c1.8,0.7,4,0.7,5.6,1.7
	c1.4,0.9,2.3,2.4,3.5,3.5c1.3,1.3,3,2.2,4.6,3.1c4.8,3.1,8.6,7.8,12.8,11.8S341,97,346.8,97l50.6,16.5l2.8,3.8l-3.7,15.1
	c5.6-1.6,12.4,0.1,18.1,1.6c3.8,1,7.7,2,11.5,2.9c3.5,0.9,7,1.8,10.1,3.7c6,3.6,9.2,10.2,12.2,16.5c2.2,4.8,4.5,10.4,2.2,15.1
	c-1.6,3.1-5.4,5-8.8,4.5c-4.6-0.7-8.1-4.9-12.7-5.2c-1.6-0.1-3.1,0.3-4.6,0c-2.4-0.6-4.2-2.6-6.3-3.8c-4.3-2.3-9.7-0.9-14.3-2.5
	c-3-1.1-5.5-3.4-8.6-4c-3.3-0.7-6.9,0.6-9.7-1c-2.3-1.3-3.3-4-5.3-5.8c-4-3.7-10.3-2.4-15.7-2.2c-7.7,0.2-15.4-2.7-21.3-7.8
	C339.3,140.8,336.4,139.3,337.4,134.2z"/>
<path class="st7" d="M407.3,18.7c2.3,0.9,4.7,1.1,7.2,1.3s5,0.7,6.9,2c2,1.3,3.5,3.8,2.9,6.2c-0.2,0.9-0.8,1.9-0.7,2.9
	c0.2,1.8,2.2,2.6,4,2.8c4,0.4,7.9-0.3,11.9-0.2c2.7,0.1,5.2,0.7,7.8,1.3c0.5,0.1,1.1,0.3,1.5,0.6c0.8,0.6,1.1,1.7,1.1,2.7
	c-2.4-0.2-4.9,1.1-6.2,3.3c3.5,0.8,7.1,1,10.6,0.7c-0.4,1.6,0.2,3.4,1.3,4.6c1.1,1.1,2.7,2,4.3,2.5c2,0.7,4.4,1.1,5.4,3
	c0.5,0.8,0.6,1.8,1.2,2.6c0.5,0.8,1.6,1.4,2.3,0.9c0.2,0.8-0.8,1.3-1.5,1.5c-4,1.2-7.9,2.5-11.9,4.1c-5.1,2-10.1,4.5-13.8,8.4
	c-0.2,0.2-0.4,0.5-0.8,0.7c-0.9,0.5-2-0.1-2.9-0.6c-4.2-2.3-9-2.7-13.7-3.5c-7.9-1.4-15.7-4-22.7-7.9c-1.5-0.8-3-1.7-3.9-3.2
	c-1-1.9-0.6-4.2-0.9-6.3c-0.2-1.7-0.9-3.4-1.4-5c-0.4-1.6-0.6-3.2-0.7-4.9c-0.3-6.5,1.5-12.8,1.2-19.3c-0.1-1.6-0.2-3.3,0.6-4.7
	c0.7-1.4,2.4-2.2,4-2.3c2-0.2,4.4,0.1,6.3,0.1C407.3,14.8,407.3,16.8,407.3,18.7z"/>
<path class="st8" d="M393.8,11.4H386l-3.6,4.1l2.1,15.9l-2.5,6.9l-11.5,23.5L359.8,83l-11.6,15.3l6.9,2.9l14.3,10.6l0.9,5.8l9.8,9
	l8.1-7.8l27.9-24.7l21.6-17.9l18-12.4l4.3-0.3c-6.8-3-13.9-6.1-20.7-9.1c-5.2-2.3-10.5-4.6-16-5.9c-1.6-0.3-3.1-0.7-4.3-1.6
	c-1.8-1.4-2.4-3.8-4.1-5.3c-2.7-2.2-7-1.4-9.1-4.1c-1.3-1.7-1.1-4.1-1.3-6.2c-0.2-2.1-1.4-4.6-3.6-4.6c-2.3,0-4.6,2.9-6.4,1.4
	c-0.4-0.4-0.7-0.9-0.9-1.5c-1.3-3.5-1.8-7.2-1.8-10.9c-0.9-0.3-2.6-2.8-2-3.6C391.1,12,392.8,11.4,393.8,11.4z"/>
<path class="st9" d="M378.1,169l3,74.7l4,12.4l7.7-0.7l18.6-13.9l-0.5,15.9c0.8,0.4,2.1,0.9,3.5,1c8.7,0.2,15.3-15.4,17.9-21.4
	c3.5-8.1,8.4-23.7,5.4-46.5l-4.5-10.1l-8.7-74l-3-1l-5.7-8l4.7-6.6c0.2-0.7,0.9-3.9-1-6.8c-1.9-3-5.6-4.6-9.4-4l-4,5.9l-0.5,17.4
	l-6.1,5.2l-4.2-0.2c1.2-2.7,2.5-6.8,1-10.8c-1-3-3.2-4.7-4.2-5.7c-10.4-9-8.8-16.4-19.7-23.9c-2.1-1.4-9.5-6.5-13.7-3.9
	c-1.1,0.7-1.7,1.7-2.1,2.5l0.9,17.8l11.5,40.2l-0.7,4.6l-4.9-0.2l-9.5,10.2v13.5l10,6.5L378.1,169z"/>
<path class="st10" d="M492,183.6c-3.2-2.8-1.8-8,0-11.9c1-2.2,1.9-4.4,3-6.6c0.3-0.8,0.8-1.7,0.6-2.6c-0.6-2.8-5.2-2.3-6.8-4.6
	c-1.1-1.6,0-4.1,1.9-4.4c1.5-2.3,0.3-5.9-2.3-6.8c-1.8-0.6-4.2-0.1-5.2-1.7c-0.5-0.8-0.5-1.7-0.4-2.6c0.3-4.7,0.6-9.4,0.9-14.1
	c0.1-0.8,0.1-1.7-0.3-2.3c-0.5-0.7-1.4-1-1.8-1.8c-0.4-0.8-0.2-1.7-0.2-2.5c0-2.8-2.8-4.8-5.6-5c-1.9-0.1-3.9,0.6-5.8-0.1
	c-1.9-0.6-3.1-3.4-1.4-4.4c1.9,0.8,4.1,0.4,5.7-1c1.4-1.4,2.1-3.7,1.4-5.5c-2.8,0.8-6,0.3-8.4-1.2c-0.6-0.4-1.2-0.9-2-1.1
	c-2.1-0.6-3.9,1.2-5.2,2.8c-2.6,3-4.1,7.6-6.9,10.4c-3.6,3.5-8.4,5.7-11.4,9.8c-5.1,7-3,16.8,0.1,24.9c2.5,6.8,5.7,13.6,11.2,18.2
	c2.9,2.4,6.6,4.5,7.9,8.1c0.4,1.2,0.5,2.5,1,3.7c0.5,1.2,1.6,2.2,2.8,2.1c0.6-0.1,1-0.3,1.4-0.6C473.4,179.1,484.8,178.8,492,183.6z
	"/>
<path class="st9" d="M451.4,113.8c-12.9,11-29.9,22.4-51.4,29.8c-3.3,1.2-6.6,2.1-9.9,3c-1.5,4.2-8,23.1,1.9,37.8
	c1.2,1.9,2.8,3.7,4.9,5.7c12.6-2.7,23.6-4.1,32.4-4.9c3.2-0.3,18.1-1.6,38-0.7c10.1,0.4,18.8,1.3,25.3,2.1c-0.9,0.4-1.9-1.4-2.5-2.1
	c-0.6-0.7-1.4-1.2-2.2-1.7c-4.9-3-10.1-5.5-15.5-7.4c1.4-1.4,3.7-2.1,5.7-1.5c0.3-1.1,0.6-2.1,0.8-3.2c-2.5-0.2-5-0.6-7.5-1.3
	c-0.6-0.1-1.3-0.3-1.7-0.9c-0.6-0.7-0.5-1.7-0.3-2.6c0.3-2.7,0.7-5.4,1.1-8c-1-0.9-2.4-1.4-3.8-1.6c-1.4-0.1-3,0.2-4.3-0.2
	c-1.4-0.4-2.5-2.2-1.5-3.3c0.8-0.9,2.2-0.6,3.3-1.1c1.2-0.5,1.8-1.8,2.3-2.9c0.3-0.6,0.6-1.3,0.6-1.9c0-1.3-1.1-2.3-2.2-3
	c-1.8-1-3.9-1.3-5.8-1.9c-2-0.6-4-1.3-5.2-3c-1.2-1.7-1.4-4.3,0.3-5.5c0.4-0.3,0.9-0.6,1.2-1c0.2-0.4,0.3-0.9,0.2-1.4
	c0-1.9,0-3.7-0.1-5.5c2.6-0.1,4.8-1.7,5.7-4.1c0.9-2.3,0.3-5.1-1.4-6.9c-0.3-0.2-0.8-0.6-1-1.2c-0.3-0.7-0.2-1.2-0.3-1.9
	c-0.1-0.6-0.6-1.3-1.2-1.2c-0.1-2.1,1.7-4.2,3.9-4.5L451.4,113.8z"/>
<path class="st11" d="M454.2,837.9c13.8-13.4,37.3-39.8,50.6-79.8c4.6-13.7,26-77.7-3.9-132.3c-18.3-33.5-36.1-27.1-91.5-77.8
	c-44.2-40.5-69.5-63.6-78.8-100.2c-10.1-39.6,2.8-77.4,24.3-140.1c17.5-51,32.6-71.2,24.3-100.2c-7.7-27.1-30.8-44.3-48.7-54.5
	l-8.9,2.4c17.8,10.2,41,27.4,48.7,54.5c8.3,29-6.8,49.2-24.3,100.2c-21.5,62.8-34.4,100.5-24.3,140.1c9.3,36.6,34.6,59.7,78.8,100.2
	c55.4,50.7,73.2,44.4,91.5,77.8c29.9,54.6,8.5,118.6,3.9,132.3c-13.3,40-36.8,66.4-50.6,79.8L454.2,837.9z"/>
<polygon class="st11" points="334.5,450.5 349.3,444.7 348.9,437.6 326.3,445.5 329.2,453.3 "/>
<linearGradient id="SVGID_1_" gradientUnits="userSpaceOnUse" x1="204.7563" y1="382.4772" x2="327.0822" y2="382.4772" gradientTransform="matrix(-1.836970e-16 -1 1 -1.836970e-16 19.4784 669.7413)">
	<stop  offset="0" style="stop-color:#8EC7A0"/>
	<stop  offset="1" style="stop-color:#3E8971"/>
</linearGradient>
<path class="st12" d="M341.3,431.1c19.2-31.1,55.3-78.4,106-87.1c5.2-0.8,10.5-1.3,15.4-1.4c-0.4,8.8-1.6,21.2-4.8,35.3
	c-2.1,9.5-15.7,67.4-52,83c-16.8,7.2-32.8,2.8-38.6,1.4c-9.9-2.7-17.7-7.2-23.2-10.9L341.3,431.1z"/>
<path class="st13" d="M362.5,440c3.4-1.3,8.1-3.4,13.4-6.8c15.5-9.5,24-21.3,29-28c8.6-11.7,21.6-27.4,41.4-48.2"/>
<path class="st13" d="M386.5,440.9c-2.7-2.8-2.8-7.2-4.2-10.9c-2.5-6.6-9.8-11-16.7-10.5"/>
<path class="st14" d="M509.2,396.8c2.1-3.3,2.8-7.1,4.5-10.6c1.7-3.4,4.9-6.6,8.8-6.4"/>
<path class="st14" d="M407,423.4c-2.7-2.8-2.8-7.2-4.2-10.9c-2.5-6.6-9.8-11-16.7-10.5"/>
<path class="st14" d="M481.2,373.9c2.8-2.7,7.2-2.8,10.9-4.2c6.6-2.5,11-9.8,10.5-16.7"/>
<polygon class="st11" points="324.4,472.7 311.7,482.4 314,489.1 333.6,475.3 328.7,468.5 "/>
<linearGradient id="SVGID_2_" gradientUnits="userSpaceOnUse" x1="429.6028" y1="127.9594" x2="551.9287" y2="127.9594" gradientTransform="matrix(0.2746 0.9616 -0.9616 0.2746 260.6038 29.0957)">
	<stop  offset="0" style="stop-color:#8EC7A0"/>
	<stop  offset="1" style="stop-color:#3E8971"/>
</linearGradient>
<path class="st15" d="M323.2,493.2c-9.9,35.2-31.6,90.6-78,112.8c-4.8,2.3-9.7,4.1-14.4,5.6c-2-8.5-4.3-20.8-5.1-35.3
	c-0.6-9.7-3.4-69.1,27.2-94.1c14.2-11.5,30.8-11.7,36.7-12c10.3-0.1,19,2.1,25.3,4.1L323.2,493.2z"/>
<path class="st13" d="M300.3,490.5c-2.9,2.2-6.8,5.5-11,10.2c-12.3,13.4-17.2,27.1-20.2,34.9c-5.1,13.6-13.3,32.3-26.6,57.7"/>
<path class="st13" d="M277,496.2c3.4,2,4.7,6.2,7.1,9.3c4.3,5.7,12.4,7.9,18.9,5.5"/>
<path class="st14" d="M238.4,571.6c3.7,1.1,7.6,0.8,11.4,1.4c3.7,0.7,7.7,2.9,8.5,6.7"/>
<path class="st14" d="M262.1,518.7c3.4,2,4.7,6.2,7.1,9.3c4.3,5.7,12.4,7.9,18.9,5.5"/>
<path class="st14" d="M252.8,538.4c3.4,2,4.7,6.2,7.1,9.3c4.3,5.7,12.4,7.9,18.9,5.5"/>
<path class="st13" d="M546,663.5c3.4-1.3,8.1-3.4,13.4-6.8c15.5-9.5,24-21.3,29-28c8.6-11.7,21.6-27.4,41.4-48.2"/>
<path class="st13" d="M570,664.3c-2.7-2.8-2.8-7.2-4.2-10.9c-2.5-6.6-9.8-11-16.7-10.5"/>
<path class="st14" d="M627.8,602.4c-3.3-2.1-7.1-2.8-10.6-4.5c-3.4-1.7-6.6-4.9-6.4-8.8"/>
<path class="st14" d="M590.5,646.8c-2.7-2.8-2.8-7.2-4.2-10.9c-2.5-6.6-9.8-11-16.7-10.5"/>
<path class="st14" d="M604.9,630.4c-2.7-2.8-2.8-7.2-4.2-10.9c-2.5-6.6-9.8-11-16.7-10.5"/>
<polygon class="st11" points="500.9,703.8 485.8,708.7 485.8,715.8 508.8,709.4 506.4,701.3 "/>
<linearGradient id="SVGID_3_" gradientUnits="userSpaceOnUse" x1="314.8516" y1="-9.1314" x2="437.1775" y2="-9.1314" gradientTransform="matrix(-6.169951e-02 0.9981 -0.9981 -6.169951e-02 444.8145 370.3992)">
	<stop  offset="0" style="stop-color:#8EC7A0"/>
	<stop  offset="1" style="stop-color:#3E8971"/>
</linearGradient>
<path class="st16" d="M493,722.7c-21.1,29.8-60,74.9-111.2,80.4c-5.3,0.5-10.5,0.6-15.5,0.5c1-8.7,2.9-21.1,7-35
	c2.7-9.3,19.8-66.3,57-79.6c17.2-6.2,32.9-0.8,38.6,1c9.7,3.3,17.2,8.3,22.5,12.3L493,722.7z"/>
<path class="st13" d="M472.4,712.5c-3.5,1.1-8.3,2.9-13.8,5.9c-16.1,8.5-25.3,19.8-30.6,26.1c-9.3,11.2-23.3,26-44.3,45.5"/>
<path class="st13" d="M448.5,710.2c2.5,3,2.4,7.4,3.6,11.1c2.1,6.8,9.1,11.6,16,11.5"/>
<path class="st14" d="M386.9,768.4c3.1,2.3,6.9,3.3,10.3,5.2c3.3,1.9,6.3,5.3,5.8,9.1"/>
<path class="st14" d="M426.9,726.4c2.5,3,2.4,7.4,3.6,11.1c2.1,6.8,9.1,11.6,16,11.5"/>
<path class="st14" d="M411.5,741.9c2.5,3,2.4,7.4,3.6,11.1c2.1,6.8,9.1,11.6,16,11.5"/>
<polygon class="st11" points="351.4,182.3 335.7,185 334.6,192 358.4,188.9 357.1,180.6 "/>
<linearGradient id="SVGID_4_" gradientUnits="userSpaceOnUse" x1="1133.5012" y1="-73.8256" x2="1255.8271" y2="-73.8256" gradientTransform="matrix(-0.2006 0.9797 -0.9797 -0.2006 443.1863 -970.7004)">
	<stop  offset="0" style="stop-color:#8EC7A0"/>
	<stop  offset="1" style="stop-color:#3E8971"/>
</linearGradient>
<path class="st17" d="M340.8,199.9c-25.1,26.6-69.9,65.8-121.3,64c-5.3-0.2-10.5-0.9-15.4-1.7c2.2-8.5,5.8-20.5,11.8-33.7
	c4-8.9,28.9-62.9,67.6-70.8c17.9-3.7,32.7,3.8,38.1,6.4c9.2,4.6,15.9,10.6,20.5,15.3L340.8,199.9z"/>
<path class="st13" d="M321.9,186.9c-3.6,0.6-8.6,1.7-14.5,4c-17.1,6.2-27.8,16.1-34,21.6c-10.8,9.8-26.7,22.5-50.2,38.9"/>
<path class="st13" d="M298.5,181.3c2.1,3.3,1.3,7.6,2,11.5c1.2,7,7.3,12.8,14.2,13.6"/>
<path class="st14" d="M229.4,230.3c2.8,2.7,6.4,4.2,9.5,6.6c3,2.3,5.5,6.2,4.5,9.9"/>
<path class="st14" d="M274.9,194.3c2.1,3.3,1.3,7.6,2,11.5c1.2,7,7.3,12.8,14.2,13.6"/>
<path class="st14" d="M257.5,207.5c2.1,3.3,1.3,7.6,2,11.5c1.2,7,7.3,12.8,14.2,13.6"/>
<polygon class="st11" points="348.4,185.1 338.5,197.6 342.4,203.4 358,185.3 351.6,179.9 "/>
<linearGradient id="SVGID_5_" gradientUnits="userSpaceOnUse" x1="1177.9592" y1="617.3987" x2="1300.2852" y2="617.3987" gradientTransform="matrix(0.5013 0.8653 -0.8653 0.5013 226.4732 -1122.4065)">
	<stop  offset="0" style="stop-color:#8EC7A0"/>
	<stop  offset="1" style="stop-color:#3E8971"/>
</linearGradient>
<path class="st18" d="M352.3,205.2c-1,36.5-8.5,95.6-48.1,128.5c-4.1,3.4-8.4,6.3-12.6,8.9c-4-7.8-9.3-19.1-13.6-33
	c-2.9-9.3-20.2-66.2,3.4-97.9c10.9-14.7,27-18.9,32.7-20.6c9.9-2.6,18.9-2.6,25.5-2.2L352.3,205.2z"/>
<path class="st13" d="M329.4,208.1c-2.3,2.8-5.3,7-8.2,12.6c-8.7,16-10.1,30.5-11,38.7c-1.6,14.5-5,34.6-11.7,62.5"/>
<path class="st13" d="M308.2,219.4c3.7,1.1,6.1,4.8,9.1,7.3c5.5,4.5,14,4.7,19.7,0.7"/>
<path class="st14" d="M289.2,302c3.9,0.2,7.5-1.1,11.4-1.4c3.8-0.2,8.2,1,9.9,4.4"/>
<path class="st14" d="M299.3,244.9c3.7,1.1,6.1,4.8,9.1,7.3c5.5,4.5,14,4.7,19.7,0.7"/>
<path class="st14" d="M295,266.3c3.7,1.1,6.1,4.8,9.1,7.3c5.5,4.5,14,4.7,19.7,0.7"/>
<path class="st13" d="M391.3,322.1c3.3,1.5,8.1,3.3,14.3,4.7c17.7,4.3,32.1,1.9,40.3,0.7c14.4-2.2,34.7-4.1,63.4-4.8"/>
<path class="st13" d="M407.7,339.7c0.1-3.9,3.1-7.1,4.7-10.7c2.9-6.5,0.9-14.7-4.4-19.2"/>
<path class="st14" d="M492.4,336.8c-0.8-3.8-3-7-4.3-10.7c-1.2-3.6-1.2-8.2,1.7-10.7"/>
<path class="st14" d="M434.6,341.8c0.1-3.9,3.1-7.1,4.7-10.7c2.9-6.5,0.9-14.7-4.4-19.2"/>
<path class="st14" d="M456.4,340.4c0.1-3.9,3.1-7.1,4.7-10.7c2.9-6.5,0.9-14.7-4.4-19.2"/>
<polygon class="st11" points="480.2,601.3 495,595.5 494.6,588.5 472,596.3 474.8,604.2 "/>
<linearGradient id="SVGID_6_" gradientUnits="userSpaceOnUse" x1="53.9052" y1="528.1567" x2="176.231" y2="528.1567" gradientTransform="matrix(-1.836970e-16 -1 1 -1.836970e-16 19.4784 669.7413)">
	<stop  offset="0" style="stop-color:#8EC7A0"/>
	<stop  offset="1" style="stop-color:#3E8971"/>
</linearGradient>
<path class="st19" d="M486.9,582c19.2-31.1,55.3-78.4,106-87.1c5.2-0.8,10.5-1.3,15.4-1.4c-0.4,8.8-1.6,21.2-4.8,35.3
	c-2.1,9.5-15.7,67.4-52,83c-16.8,7.2-32.8,2.8-38.6,1.4c-9.9-2.7-17.7-7.2-23.2-10.9L486.9,582z"/>
<path class="st13" d="M508.1,590.9c3.4-1.3,8.1-3.4,13.4-6.8c15.5-9.5,24-21.3,29-28c8.6-11.7,21.6-27.4,41.4-48.2"/>
<path class="st13" d="M532.2,591.7c-2.7-2.8-2.8-7.2-4.2-10.9c-2.5-6.6-9.8-11-16.7-10.5"/>
<path class="st14" d="M590,529.8c-3.3-2.1-7.1-2.8-10.6-4.5c-3.4-1.7-6.6-4.9-6.4-8.8"/>
<path class="st14" d="M552.7,574.2c-2.7-2.8-2.8-7.2-4.2-10.9c-2.5-6.6-9.8-11-16.7-10.5"/>
<path class="st14" d="M567.1,557.8c-2.7-2.8-2.8-7.2-4.2-10.9c-2.5-6.6-9.8-11-16.7-10.5"/>
</svg>
