<?xml version="1.0" encoding="utf-8"?>
<!-- Generator: Adobe Illustrator 24.3.0, SVG Export Plug-In . SVG Version: 6.00 Build 0)  -->
<svg version="1.1" id="Layer_1" xmlns="http://www.w3.org/2000/svg" xmlns:xlink="http://www.w3.org/1999/xlink" x="0px" y="0px"
	 viewBox="0 0 841.9 841.9" style="enable-background:new 0 0 841.9 841.9;" xml:space="preserve">
<style type="text/css">
	.st0{fill:#414042;}
	.st1{fill:#F0FFDD;}
	.st2{fill:#FFFFFF;stroke:#000000;stroke-miterlimit:10;}
</style>
<image style="display:none;overflow:visible;enable-background:new    ;" width="450" height="950" xlink:href="../../../../Downloads/254137875_571096570663065_1327983642435274809_n.jpg"  transform="matrix(1 0 0 1 267.25 -76.125)">
</image>
<g>
	<g>
		<path class="st0" d="M-537,208.4c3.2,0,3.2-5,0-5S-540.2,208.4-537,208.4L-537,208.4z"/>
	</g>
</g>
<g>
	<g>
		<path class="st0" d="M-537,208.4c3.2,0,3.2-5,0-5S-540.2,208.4-537,208.4L-537,208.4z"/>
	</g>
</g>
<path class="st1" d="M542.5,1119.4"/>
<path class="st2" d="M84.9,447.3c2.4,11.5,8,21,8,21s8.7,14.8,27.5,26.1C141.3,507,189.5,518,252.9,519c2.6-5.8,6.3-14,10.9-23.9
	c31-66.4,65.7-126.1,121.7-207.8c101.6-148.5,126.1-155.1,142.7-155c27.5,0.2,50.1,19,65.2,35.5c1.7-5.7,3.6-13.9,3.6-23.9
	c0.2-33-19.2-56.4-28.2-67.4c-6.4-7.7-29.4-33.7-67.4-44.2c-32.8-9.1-67.4-4-109.4,14.5C194.3,133.9,77.3,410.2,84.9,447.3z"/>
<path class="st2" d="M76,461c6.2,0.1,5.6,15.9,21,32c12.1,12.7,26.7,17.8,48,23c23.3,5.7,58.3,12.5,104,15c-6.9,12.8-6.5,21.5-5,27
	c15.5,57.4,225.8,51,292,49c18.2-0.6,33.1-1.4,43-2c5.6,2.1,13.6,6.2,20,14c0,0,20.1,24.7,4,70c-23.6,66.4-335.5,35-409,27L87,651
	c-11.9-16.8-27.7-44.4-33-81C46.2,515.6,64.5,460.8,76,461z"/>
<path class="st2" d="M789,214"/>
</svg>
