<?xml version="1.0" encoding="utf-8"?>
<!-- Generator: Adobe Illustrator 26.3.1, SVG Export Plug-In . SVG Version: 6.00 Build 0)  -->
<svg version="1.1" id="Layer_1" xmlns="http://www.w3.org/2000/svg" xmlns:xlink="http://www.w3.org/1999/xlink" x="0px" y="0px"
	 viewBox="0 0 200 200" style="enable-background:new 0 0 200 200;" xml:space="preserve">
<style type="text/css">
	.st0{fill:#666666;}
	.st1{fill:#CCCCCC;}
	.st2{fill:#8DA538;}
	.st3{fill:#D9E021;}
	.st4{fill:#688442;}
	.st5{fill:#8DB845;}
	.st6{fill:#FFFFFF;}
</style>
<g>
	<g>
		<g>
			<circle class="st0" cx="39" cy="132.8" r="14.2"/>
			<circle class="st0" cx="161" cy="132.8" r="14.2"/>
		</g>
		<rect x="98.1" y="105.1" class="st0" width="42" height="26.8"/>
		<polygon class="st1" points="120.8,131.9 5.4,131.9 5.4,68.3 37.6,49.4 120.8,49.4 		"/>
		<path class="st2" d="M188.7,119.5c-0.4-2.2,1.1-4.4,3.1-5.5c0.7-0.4,1.4-0.6,2.1-0.8c-0.8-13.8-2.4-31.6-6.2-39.5
			c-10-23-61.1-21.8-61.1-21.8v80h67.9c0,0,0-2.7-0.1-6.9c-1.5-0.5-2.9-1.4-4-2.5C189.6,121.6,188.9,120.6,188.7,119.5z"/>
		<path class="st3" d="M191.9,114c-2,1.1-3.5,3.3-3.1,5.5c0.2,1.1,0.9,2.1,1.7,3c1.1,1.1,2.5,2,4,2.5c-0.1-3.2-0.2-7.2-0.5-11.7
			C193.2,113.4,192.5,113.7,191.9,114z"/>
		<g>
			<g>
				<path class="st4" d="M42.4,102.7l4.1-6.8l3.3,1.9L47.3,83l-13.8,5.3l2.7,2c0,0-2.4,4-1.9,6.8C35.6,99.1,38,101.4,42.4,102.7z"/>
				<path class="st4" d="M35.6,100.6c0,0,0.1,0.2,0.3,0.5c-0.1-0.2-0.2-0.4-0.3-0.6C35.6,100.6,35.6,100.6,35.6,100.6z"/>
				<path class="st5" d="M36.6,102.6c-0.3-0.6-0.6-1.1-0.8-1.5C36.1,101.6,36.3,102.1,36.6,102.6z"/>
				<path class="st5" d="M57.3,115.8l-0.8-12.6c-0.9,0.1-1.8,0.2-2.7,0.3c-4.9,0.4-8.6,0-11.5-0.9c-4.4-1.3-6.8-3.6-8.1-5.5
					c0,0.2,0.1,0.4,0.2,0.6c0.7,1.8,1,2.5,1.1,2.7c0.1,0.2,0.2,0.4,0.3,0.6c0.2,0.4,0.4,0.9,0.8,1.5c2.5,4.7,6.1,10.1,7.4,12.1
					c0.2,0.3,0.6,0.6,1,0.8c2.9,1.5,9.7,0.7,11.9,0.4C57.2,115.9,57.3,115.9,57.3,115.8L57.3,115.8z"/>
			</g>
			<g>
				<path class="st4" d="M64.6,68.6l4,6.8l-3.2,2l14.2,4.8l1.8-14.7l-3.1,1.4c0,0-2.3-4-5.1-4.9C71,64.3,67.8,65.4,64.6,68.6z"/>
				<path class="st4" d="M69.7,63.6c0,0-0.2,0-0.6,0c0.2,0,0.5,0,0.7,0C69.7,63.6,69.7,63.6,69.7,63.6z"/>
				<path class="st5" d="M67.4,63.5c0.7,0,1.3,0,1.7,0C68.5,63.5,68,63.5,67.4,63.5z"/>
				<path class="st5" d="M72.7,63.9c-2-0.2-2.6-0.3-2.9-0.3c-0.2,0-0.5,0-0.7,0c-0.4,0-1,0-1.7,0c-5.4,0-11.8,0.6-14.1,0.8
					c-0.4,0-0.8,0.2-1.2,0.5c-2.7,1.8-5.2,8.2-5.9,10.3c-0.1,0.3-0.2,0.4-0.2,0.4l0,0l11.4,5.3c0.3-0.9,0.7-1.7,1-2.5
					c1.9-4.5,4.1-7.6,6.2-9.7c3.2-3.2,6.4-4.3,8.7-4.6C73.1,64,72.9,63.9,72.7,63.9z"/>
			</g>
			<g>
				<path class="st4" d="M82.7,103.1l-7.9-0.3l0.1-3.8l-11.7,9.3l11.3,9.5l0.5-3.3c0,0,4.7,0.2,6.9-1.6
					C82.8,110.8,83.6,107.5,82.7,103.1z"/>
				<path class="st4" d="M87.1,83.6L87.1,83.6c0,0.1,0.1,0.2,0.2,0.4C87.1,83.8,87.1,83.6,87.1,83.6z"/>
				<path class="st4" d="M84.2,110c0,0,0.1-0.2,0.3-0.5c-0.1,0.2-0.3,0.4-0.4,0.6C84.2,110,84.2,110,84.2,110z"/>
				<path class="st5" d="M85.4,108.2c-0.4,0.6-0.7,1.1-0.9,1.4C84.8,109.1,85.1,108.6,85.4,108.2z"/>
				<path class="st5" d="M77.9,92.6c2.7,4.1,4.1,7.6,4.8,10.5l0.3,0C82,99,79.5,95,77.9,92.6z"/>
				<path class="st5" d="M87.3,84c-0.1-0.1-0.2-0.3-0.3-0.4l-10.7,6.7c0.6,0.7,1.1,1.5,1.5,2.2c1.6,2.4,4.1,6.4,5,10.5l-0.3,0
					c1,4.5,0.1,7.7-0.9,9.8c0.2-0.1,0.3-0.3,0.5-0.5c1.3-1.5,1.7-2.1,1.8-2.2c0.1-0.2,0.3-0.4,0.4-0.6c0.2-0.3,0.5-0.8,0.9-1.4
					c2.9-4.5,6-10.2,7-12.3c0.2-0.4,0.3-0.8,0.3-1.3C92.6,91.3,88.6,85.7,87.3,84z"/>
			</g>
		</g>
		<g>
			<path class="st6" d="M137.2,63.7v30.4h13.7V64.2C143.3,63.6,137.2,63.7,137.2,63.7z"/>
			<path class="st6" d="M181.4,94.1c0,0,0-1-0.1-2.6c-0.1-1.2-0.2-2.7-0.3-4.4c-0.5-5.2-1.6-12-4-15c-3.4-4.5-13.8-6.6-23.2-7.5
				v29.6H181.4z"/>
		</g>
	</g>
</g>
</svg>
